<svg width="18" height="16" viewBox="0 0 18 16" fill="none" xmlns="http://www.w3.org/2000/svg">
<path d="M16.1573 4.32808C16.1682 4.48685 16.1682 4.64547 16.1682 4.80564C16.1682 9.68533 12.4533 15.3131 5.66072 15.3131V15.3103C3.65401 15.3131 1.6889 14.7384 0 13.6546C0.291797 13.6898 0.585 13.7073 0.878906 13.708C2.54209 13.7094 4.15744 13.1516 5.46539 12.1242C4.69476 12.1096 3.94794 11.8546 3.32936 11.3948C2.71077 10.935 2.25134 10.2933 2.0153 9.55961C2.56894 9.66649 3.13931 9.64441 3.68269 9.49591C1.95975 9.14786 0.720281 7.63417 0.720281 5.87622V5.82939C1.23389 6.11552 1.80873 6.27405 2.39639 6.29163C0.773438 5.20713 0.273516 3.04839 1.25339 1.36075C2.18052 2.5016 3.33726 3.43465 4.64848 4.09932C5.95969 4.764 7.39607 5.14541 8.8643 5.2188C8.71795 4.58863 8.73961 3.93107 8.92711 3.3119C9.11462 2.69272 9.4614 2.13363 9.93277 1.69052C11.4202 0.292284 13.7595 0.364003 15.1575 1.85069C15.9846 1.68739 16.7777 1.38416 17.5028 0.954065C17.227 1.80916 16.6502 2.53502 15.8794 2.99664C16.6114 2.91033 17.3263 2.71431 18 2.41516C17.5044 3.15732 16.8804 3.80512 16.1573 4.32808Z" fill="#1D9BF0"/>
</svg>
