<svg width="282" height="331" viewBox="0 0 282 331" fill="none" xmlns="http://www.w3.org/2000/svg">
<g clip-path="url(#clip0_387_64000)">
<rect width="282" height="331" rx="12" fill="#0F0F0F"/>
<rect width="282" height="48" fill="#161718"/>
<rect x="12" y="12" width="64" height="23" rx="8" fill="#2B2D2F"/>
<path d="M24.8877 26.7781V26.3726H25.2959V25.9644H25.7014V25.1506H25.2959V24.7424H24.8877V24.3342H22.8494V24.7424H22.4438V25.1506H22.0356V25.9644H22.4438V26.3726H22.8494V26.7781H24.8877ZM24.8877 23.1123V22.7041H25.2959V22.2986H25.7014V21.4822H25.2959V21.0767H24.8877V20.6685H22.8494V21.0767H22.4438V21.4822H22.0356V22.2986H22.4438V22.7041H22.8494V23.1123H24.8877ZM22.0356 28V27.5945H21.6274V27.1863H21.2219V26.7781H20.8137V24.3342H21.2219V23.926H21.6274V23.5205H21.2219V23.1123H20.8137V20.6685H21.2219V20.2603H21.6274V19.8521H22.0356V19.4465H25.7014V19.8521H26.1096V20.2603H26.5178V20.6685H26.9233V23.1123H26.5178V23.5205H26.1096V23.926H26.5178V24.3342H26.9233V26.7781H26.5178V27.1863H26.1096V27.5945H25.7014V28H22.0356ZM35.6836 23.1123V22.7041H36.0918V22.2986H36.4973V21.4822H36.0918V21.0767H35.6836V20.6685H32.8315V23.1123H35.6836ZM31.6096 28V19.4465H36.4973V19.8521H36.9055V20.2603H37.3137V20.6685H37.7192V23.1123H37.3137V23.5205H36.9055V23.926H36.4973V24.3342H32.8315V28H31.6096ZM43.0205 26.7781V26.3726H43.4287V25.9644H43.8342V21.4822H43.4287V21.0767H43.0205V20.6685H40.9822V21.0767H40.5767V21.4822H40.1685V25.9644H40.5767V26.3726H40.9822V26.7781H43.0205ZM40.1685 28V27.5945H39.7603V27.1863H39.3547V26.7781H38.9465V20.6685H39.3547V20.2603H39.7603V19.8521H40.1685V19.4465H43.8342V19.8521H44.2424V20.2603H44.6506V20.6685H45.0562V26.7781H44.6506V27.1863H44.2424V27.5945H43.8342V28H40.1685ZM50.3574 26.7781V26.3726H50.7656V25.9644H51.1711V21.4822H50.7656V21.0767H50.3574V20.6685H48.3191V21.0767H47.9136V21.4822H47.5054V25.9644H47.9136V26.3726H48.3191V26.7781H50.3574ZM47.5054 28V27.5945H47.0972V27.1863H46.6917V26.7781H46.2834V20.6685H46.6917V20.2603H47.0972V19.8521H47.5054V19.4465H51.1711V19.8521H51.5793V20.2603H51.9875V20.6685H52.3931V26.7781H51.9875V27.1863H51.5793V27.5945H51.1711V28H47.5054ZM53.6204 28V19.4465H54.8423V26.7781H59.73V28H53.6204ZM62.1792 28V27.5945H61.771V27.1863H61.3655V26.7781H60.9573V25.5562H62.1792V25.9644H62.5874V26.3726H62.9929V26.7781H65.0312V26.3726H65.4395V25.9644H65.845V25.1506H65.4395V24.7424H65.0312V24.3342H62.1792V23.926H61.771V23.5205H61.3655V23.1123H60.9573V20.6685H61.3655V20.2603H61.771V19.8521H62.1792V19.4465H65.845V19.8521H66.2532V20.2603H66.6614V20.6685H67.0669V21.8904H65.845V21.4822H65.4395V21.0767H65.0312V20.6685H62.9929V21.0767H62.5874V21.4822H62.1792V22.2986H62.5874V22.7041H62.9929V23.1123H65.845V23.5205H66.2532V23.926H66.6614V24.3342H67.0669V26.7781H66.6614V27.1863H66.2532V27.5945H65.845V28H62.1792Z" fill="#F2F2F2"/>
<rect x="84" y="12" width="59" height="24" rx="8" fill="#2B2D2F"/>
<path fill-rule="evenodd" clip-rule="evenodd" d="M99.9791 18.6667C97.0451 18.6667 94.6667 21.0451 94.6667 23.9791C94.6667 26.913 97.0451 29.2915 99.9791 29.2915C102.913 29.2915 105.291 26.913 105.291 23.9791C105.291 21.0451 102.913 18.6667 99.9791 18.6667ZM94 23.9791C94 20.6769 96.6769 18 99.9791 18C103.281 18 105.958 20.6769 105.958 23.9791C105.958 27.2812 103.281 29.9582 99.9791 29.9582C96.6769 29.9582 94 27.2812 94 23.9791ZM99.9791 21.3874C100.163 21.3874 100.312 21.5367 100.312 21.7208V24.1233L101.909 25.7194C102.039 25.8496 102.039 26.0606 101.909 26.1908C101.778 26.321 101.567 26.321 101.437 26.1908L99.7434 24.4971C99.6809 24.4346 99.6457 24.3498 99.6457 24.2614V21.7208C99.6457 21.5367 99.795 21.3874 99.9791 21.3874Z" fill="#F2F2F2"/>
<path d="M100.312 24.1233H100.146C100.146 24.1675 100.163 24.2099 100.195 24.2411L100.312 24.1233ZM101.909 25.7194L101.791 25.8372V25.8372L101.909 25.7194ZM101.909 26.1908L101.791 26.0729L101.791 26.0729L101.909 26.1908ZM101.437 26.1908L101.555 26.0729L101.555 26.0729L101.437 26.1908ZM99.7434 24.4971L99.8612 24.3792L99.8612 24.3792L99.7434 24.4971ZM94.8333 23.9791C94.8333 21.1372 97.1372 18.8333 99.9791 18.8333V18.5C96.9531 18.5 94.5 20.9531 94.5 23.9791H94.8333ZM99.9791 29.1248C97.1372 29.1248 94.8333 26.821 94.8333 23.9791H94.5C94.5 27.0051 96.9531 29.4582 99.9791 29.4582V29.1248ZM105.125 23.9791C105.125 26.821 102.821 29.1248 99.9791 29.1248V29.4582C103.005 29.4582 105.458 27.0051 105.458 23.9791H105.125ZM99.9791 18.8333C102.821 18.8333 105.125 21.1372 105.125 23.9791H105.458C105.458 20.9531 103.005 18.5 99.9791 18.5V18.8333ZM99.9791 17.8333C96.5849 17.8333 93.8333 20.5849 93.8333 23.9791H94.1667C94.1667 20.769 96.769 18.1667 99.9791 18.1667V17.8333ZM106.125 23.9791C106.125 20.5849 103.373 17.8333 99.9791 17.8333V18.1667C103.189 18.1667 105.791 20.769 105.791 23.9791H106.125ZM99.9791 30.1248C103.373 30.1248 106.125 27.3733 106.125 23.9791H105.791C105.791 27.1892 103.189 29.7915 99.9791 29.7915V30.1248ZM93.8333 23.9791C93.8333 27.3733 96.5849 30.1248 99.9791 30.1248V29.7915C96.769 29.7915 94.1667 27.1892 94.1667 23.9791H93.8333ZM100.479 21.7208C100.479 21.4446 100.255 21.2208 99.9791 21.2208V21.5541C100.071 21.5541 100.146 21.6287 100.146 21.7208H100.479ZM100.479 24.1233V21.7208H100.146V24.1233H100.479ZM102.026 25.6015L100.43 24.0054L100.195 24.2411L101.791 25.8372L102.026 25.6015ZM102.026 26.3086C102.222 26.1134 102.222 25.7968 102.026 25.6015L101.791 25.8372C101.856 25.9023 101.856 26.0078 101.791 26.0729L102.026 26.3086ZM101.319 26.3086C101.515 26.5039 101.831 26.5039 102.026 26.3086L101.791 26.0729C101.726 26.138 101.62 26.138 101.555 26.0729L101.319 26.3086ZM99.6255 24.6149L101.319 26.3086L101.555 26.0729L99.8612 24.3792L99.6255 24.6149ZM99.4791 24.2614C99.4791 24.394 99.5318 24.5211 99.6255 24.6149L99.8612 24.3792C99.83 24.348 99.8124 24.3056 99.8124 24.2614H99.4791ZM99.4791 21.7208V24.2614H99.8124V21.7208H99.4791ZM99.9791 21.2208C99.7029 21.2208 99.4791 21.4446 99.4791 21.7208H99.8124C99.8124 21.6287 99.887 21.5541 99.9791 21.5541V21.2208Z" fill="#F2F2F2"/>
<path d="M114.036 28.5V28.0945H113.627V27.6863H113.222V27.2781H112.814V26.0562H114.036V26.4644H114.444V26.8726H114.849V27.2781H116.888V26.8726H117.296V26.4644H117.701V25.6506H117.296V25.2424H116.888V24.8342H115.258V23.6123H116.888V23.2041H117.296V22.7986H117.701V21.9822H117.296V21.5767H116.888V21.1685H114.849V21.5767H114.444V21.9822H114.036V22.3904H112.814V21.1685H113.222V20.7603H113.627V20.3521H114.036V19.9465H117.701V20.3521H118.11V20.7603H118.518V21.1685H118.923V23.6123H118.518V24.0205H118.11V24.426H118.518V24.8342H118.923V27.2781H118.518V27.6863H118.11V28.0945H117.701V28.5H114.036ZM124.225 27.2781V26.8726H124.633V26.4644H125.038V23.6123H124.633V24.0205H124.225V24.426H123.816V24.8342H123.411V25.2424H123.003V25.6506H122.594V26.0562H122.186V26.4644H121.781V26.8726H122.186V27.2781H124.225ZM121.781 24.8342V24.426H122.186V24.0205H122.594V23.6123H123.003V23.2041H123.411V22.7986H123.816V22.3904H124.225V21.9822H124.633V21.5767H124.225V21.1685H122.186V21.5767H121.781V21.9822H121.373V24.8342H121.781ZM121.373 28.5V28.0945H120.964V27.6863H120.559V27.2781H120.151V21.1685H120.559V20.7603H120.964V20.3521H121.373V19.9465H125.038V20.3521H125.447V20.7603H125.855V21.1685H126.26V27.2781H125.855V27.6863H125.447V28.0945H125.038V28.5H121.373ZM131.562 27.2781V26.8726H131.97V26.4644H132.375V21.9822H131.97V21.5767H131.562V21.1685H128.709V27.2781H131.562ZM127.488 28.5V19.9465H132.375V20.3521H132.783V20.7603H133.192V21.1685H133.597V27.2781H133.192V27.6863H132.783V28.0945H132.375V28.5H127.488Z" fill="#F2F2F2"/>
<path d="M53 64.4004H258C262.418 64.4004 266 67.9821 266 72.4004V120.4C266 124.819 262.418 128.4 258 128.4H53V64.4004Z" fill="#0F0F0F"/>
<circle cx="52" cy="96" r="36" fill="#161718"/>
<rect x="20.8008" y="64.7998" width="64" height="64" rx="32" fill="#0F0F0F"/>
<g opacity="0.5" filter="url(#filter0_d_387_64000)">
<path d="M81 96.999C81 104.589 77.9799 111.474 73.0758 116.517M53 124.999C43.913 124.999 35.8371 120.67 30.7217 113.963C27.1318 109.255 25 103.376 25 96.999M39.8175 72.2901C43.746 70.1898 48.234 68.999 53 68.999C66.575 68.999 77.8937 78.6595 80.4564 91.4808M81.0013 96.9989C81.0013 104.589 77.9812 111.474 73.0771 116.517" stroke="#95ABFF" strokeLinecap="round"/>
</g>
<rect x="30.8008" y="74.7998" width="44" height="44" rx="22" fill="#627EEA"/>
<path d="M52.8008 83.0498V93.2155L61.3911 97.0548L52.8008 83.0498Z" fill="white" fill-opacity="0.602"/>
<path d="M52.7985 83.0498L44.207 97.0548L52.7985 93.2155V83.0498Z" fill="#F9FAFD"/>
<path d="M52.8008 103.642V110.549L61.3968 98.6543L52.8008 103.642Z" fill="white" fill-opacity="0.602"/>
<path d="M52.7985 110.549V103.641L44.207 98.6543L52.7985 110.549Z" fill="#F9FAFD"/>
<path d="M52.8008 102.043L61.3911 97.0538L52.8008 93.2168V102.043Z" fill="white" fill-opacity="0.2"/>
<path d="M44.207 97.0538L52.7985 102.043V93.2168L44.207 97.0538Z" fill="white" fill-opacity="0.602"/>
<path d="M104.438 94V80.9091H109.232C110.161 80.9091 110.93 81.0625 111.54 81.3693C112.149 81.6719 112.605 82.0831 112.908 82.603C113.21 83.1186 113.362 83.7003 113.362 84.348C113.362 84.8935 113.261 85.3537 113.061 85.7287C112.861 86.0994 112.592 86.3977 112.256 86.6236C111.923 86.8452 111.557 87.0071 111.156 87.1094V87.2372C111.591 87.2585 112.015 87.3991 112.428 87.6591C112.846 87.9148 113.191 88.2791 113.464 88.7521C113.737 89.2251 113.873 89.8004 113.873 90.478C113.873 91.147 113.715 91.7479 113.4 92.2805C113.089 92.8089 112.607 93.2287 111.955 93.5398C111.303 93.8466 110.47 94 109.456 94H104.438ZM106.413 92.3061H109.264C110.21 92.3061 110.888 92.1229 111.297 91.7564C111.706 91.3899 111.911 90.9318 111.911 90.3821C111.911 89.9687 111.806 89.5895 111.597 89.2443C111.388 88.8991 111.09 88.6243 110.702 88.4197C110.319 88.2152 109.863 88.1129 109.335 88.1129H106.413V92.3061ZM106.413 86.5724H109.06C109.503 86.5724 109.901 86.4872 110.255 86.3168C110.613 86.1463 110.896 85.9077 111.105 85.6009C111.318 85.2898 111.425 84.9233 111.425 84.5014C111.425 83.9602 111.235 83.5064 110.856 83.1399C110.477 82.7734 109.895 82.5902 109.111 82.5902H106.413V86.5724ZM120.198 94.1982C119.277 94.1982 118.474 93.9872 117.788 93.5653C117.102 93.1435 116.569 92.5533 116.19 91.7947C115.811 91.0362 115.621 90.1499 115.621 89.1357C115.621 88.1172 115.811 87.2266 116.19 86.4638C116.569 85.701 117.102 85.1087 117.788 84.6868C118.474 84.2649 119.277 84.054 120.198 84.054C121.118 84.054 121.922 84.2649 122.608 84.6868C123.294 85.1087 123.826 85.701 124.206 86.4638C124.585 87.2266 124.775 88.1172 124.775 89.1357C124.775 90.1499 124.585 91.0362 124.206 91.7947C123.826 92.5533 123.294 93.1435 122.608 93.5653C121.922 93.9872 121.118 94.1982 120.198 94.1982ZM120.204 92.5938C120.801 92.5938 121.295 92.4361 121.687 92.1207C122.079 91.8054 122.369 91.3857 122.556 90.8615C122.748 90.3374 122.844 89.7599 122.844 89.1293C122.844 88.5028 122.748 87.9276 122.556 87.4034C122.369 86.875 122.079 86.451 121.687 86.1314C121.295 85.8118 120.801 85.652 120.204 85.652C119.603 85.652 119.105 85.8118 118.708 86.1314C118.316 86.451 118.025 86.875 117.833 87.4034C117.645 87.9276 117.551 88.5028 117.551 89.1293C117.551 89.7599 117.645 90.3374 117.833 90.8615C118.025 91.3857 118.316 91.8054 118.708 92.1207C119.105 92.4361 119.603 92.5938 120.204 92.5938ZM126.908 94V84.1818H128.755V85.7415H128.857C129.036 85.2131 129.352 84.7976 129.803 84.495C130.259 84.1882 130.775 84.0348 131.35 84.0348C131.47 84.0348 131.61 84.0391 131.772 84.0476C131.938 84.0561 132.068 84.0668 132.162 84.0795V85.9077C132.085 85.8864 131.949 85.8629 131.753 85.8374C131.557 85.8075 131.361 85.7926 131.165 85.7926C130.713 85.7926 130.311 85.8885 129.957 86.0803C129.607 86.2678 129.33 86.5298 129.126 86.8665C128.921 87.1989 128.819 87.5781 128.819 88.0043V94H126.908ZM133.816 94V84.1818H135.663V85.7415H135.766C135.945 85.2131 136.26 84.7976 136.712 84.495C137.168 84.1882 137.683 84.0348 138.259 84.0348C138.378 84.0348 138.518 84.0391 138.68 84.0476C138.847 84.0561 138.977 84.0668 139.07 84.0795V85.9077C138.994 85.8864 138.857 85.8629 138.661 85.8374C138.465 85.8075 138.269 85.7926 138.073 85.7926C137.621 85.7926 137.219 85.8885 136.865 86.0803C136.516 86.2678 136.239 86.5298 136.034 86.8665C135.83 87.1989 135.727 87.5781 135.727 88.0043V94H133.816ZM144.508 94.1982C143.588 94.1982 142.785 93.9872 142.099 93.5653C141.412 93.1435 140.88 92.5533 140.501 91.7947C140.121 91.0362 139.932 90.1499 139.932 89.1357C139.932 88.1172 140.121 87.2266 140.501 86.4638C140.88 85.701 141.412 85.1087 142.099 84.6868C142.785 84.2649 143.588 84.054 144.508 84.054C145.429 84.054 146.232 84.2649 146.918 84.6868C147.604 85.1087 148.137 85.701 148.516 86.4638C148.895 87.2266 149.085 88.1172 149.085 89.1357C149.085 90.1499 148.895 91.0362 148.516 91.7947C148.137 92.5533 147.604 93.1435 146.918 93.5653C146.232 93.9872 145.429 94.1982 144.508 94.1982ZM144.515 92.5938C145.111 92.5938 145.606 92.4361 145.998 92.1207C146.39 91.8054 146.68 91.3857 146.867 90.8615C147.059 90.3374 147.155 89.7599 147.155 89.1293C147.155 88.5028 147.059 87.9276 146.867 87.4034C146.68 86.875 146.39 86.451 145.998 86.1314C145.606 85.8118 145.111 85.652 144.515 85.652C143.914 85.652 143.415 85.8118 143.019 86.1314C142.627 86.451 142.335 86.875 142.143 87.4034C141.956 87.9276 141.862 88.5028 141.862 89.1293C141.862 89.7599 141.956 90.3374 142.143 90.8615C142.335 91.3857 142.627 91.8054 143.019 92.1207C143.415 92.4361 143.914 92.5938 144.515 92.5938ZM153.048 94L150.159 84.1818H152.134L154.058 91.392H154.154L156.084 84.1818H158.059L159.977 91.3601H160.073L161.984 84.1818H163.959L161.077 94H159.127L157.133 86.9112H156.986L154.991 94H153.048ZM172.045 84.1818L174.212 88.0043L176.398 84.1818H178.488L175.427 89.0909L178.514 94H176.424L174.212 90.331L172.007 94H169.91L172.966 89.0909L169.949 84.1818H172.045ZM191.477 85.1662H189.483C189.406 84.7401 189.263 84.3651 189.055 84.0412C188.846 83.7173 188.59 83.4425 188.287 83.2166C187.985 82.9908 187.646 82.8203 187.271 82.7053C186.9 82.5902 186.506 82.5327 186.089 82.5327C185.334 82.5327 184.659 82.7223 184.062 83.1016C183.47 83.4808 183.001 84.0369 182.656 84.7699C182.315 85.5028 182.145 86.3977 182.145 87.4545C182.145 88.5199 182.315 89.419 182.656 90.152C183.001 90.8849 183.472 91.4389 184.069 91.8139C184.665 92.1889 185.336 92.3764 186.082 92.3764C186.496 92.3764 186.888 92.321 187.258 92.2102C187.633 92.0952 187.972 91.9268 188.275 91.7053C188.577 91.4837 188.833 91.2131 189.042 90.8935C189.255 90.5696 189.402 90.1989 189.483 89.7812L191.477 89.7876C191.371 90.4311 191.164 91.0234 190.857 91.5646C190.555 92.1016 190.165 92.5661 189.687 92.9581C189.214 93.3459 188.673 93.6463 188.064 93.8594C187.454 94.0724 186.79 94.179 186.069 94.179C184.936 94.179 183.926 93.9105 183.04 93.3736C182.153 92.8324 181.454 92.0589 180.943 91.0533C180.436 90.0476 180.182 88.848 180.182 87.4545C180.182 86.0568 180.438 84.8572 180.949 83.8558C181.461 82.8501 182.16 82.0788 183.046 81.5419C183.932 81.0007 184.94 80.7301 186.069 80.7301C186.764 80.7301 187.412 80.8303 188.013 81.0305C188.618 81.2266 189.161 81.5163 189.643 81.8999C190.124 82.2791 190.523 82.7436 190.838 83.2933C191.153 83.8388 191.366 84.4631 191.477 85.1662ZM194.858 94H192.762L197.473 80.9091H199.755L204.466 94H202.369L198.668 83.2869H198.566L194.858 94ZM195.21 88.8736H202.011V90.5355H195.21V88.8736ZM206.356 94V80.9091H208.331V92.2997H214.263V94H206.356Z" fill="#F4F4F4"/>
<path d="M112.575 107.129H111.024C110.964 106.798 110.853 106.506 110.691 106.254C110.529 106.002 110.33 105.789 110.094 105.613C109.859 105.437 109.596 105.305 109.304 105.215C109.016 105.126 108.709 105.081 108.384 105.081C107.798 105.081 107.272 105.228 106.808 105.523C106.348 105.818 105.983 106.251 105.714 106.821C105.449 107.391 105.317 108.087 105.317 108.909C105.317 109.738 105.449 110.437 105.714 111.007C105.983 111.577 106.349 112.008 106.813 112.3C107.277 112.591 107.799 112.737 108.379 112.737C108.701 112.737 109.006 112.694 109.294 112.608C109.586 112.518 109.849 112.388 110.085 112.215C110.32 112.043 110.519 111.832 110.681 111.584C110.847 111.332 110.961 111.044 111.024 110.719L112.575 110.724C112.492 111.224 112.332 111.685 112.093 112.106C111.858 112.523 111.554 112.885 111.183 113.19C110.815 113.491 110.394 113.725 109.92 113.891C109.446 114.056 108.929 114.139 108.369 114.139C107.488 114.139 106.702 113.93 106.013 113.513C105.323 113.092 104.78 112.49 104.382 111.708C103.988 110.926 103.79 109.993 103.79 108.909C103.79 107.822 103.989 106.889 104.387 106.11C104.785 105.328 105.328 104.728 106.018 104.31C106.707 103.889 107.491 103.679 108.369 103.679C108.91 103.679 109.413 103.757 109.881 103.913C110.351 104.065 110.774 104.29 111.148 104.589C111.523 104.884 111.833 105.245 112.078 105.673C112.323 106.097 112.489 106.582 112.575 107.129ZM117.511 114.154C116.795 114.154 116.17 113.99 115.637 113.662C115.103 113.334 114.689 112.875 114.394 112.285C114.099 111.695 113.951 111.005 113.951 110.217C113.951 109.424 114.099 108.732 114.394 108.138C114.689 107.545 115.103 107.085 115.637 106.756C116.17 106.428 116.795 106.264 117.511 106.264C118.227 106.264 118.852 106.428 119.385 106.756C119.919 107.085 120.333 107.545 120.628 108.138C120.923 108.732 121.07 109.424 121.07 110.217C121.07 111.005 120.923 111.695 120.628 112.285C120.333 112.875 119.919 113.334 119.385 113.662C118.852 113.99 118.227 114.154 117.511 114.154ZM117.516 112.906C117.98 112.906 118.364 112.784 118.669 112.538C118.974 112.293 119.2 111.967 119.345 111.559C119.494 111.151 119.569 110.702 119.569 110.212C119.569 109.724 119.494 109.277 119.345 108.869C119.2 108.458 118.974 108.129 118.669 107.88C118.364 107.631 117.98 107.507 117.516 107.507C117.048 107.507 116.661 107.631 116.352 107.88C116.048 108.129 115.82 108.458 115.671 108.869C115.526 109.277 115.453 109.724 115.453 110.212C115.453 110.702 115.526 111.151 115.671 111.559C115.82 111.967 116.048 112.293 116.352 112.538C116.661 112.784 117.048 112.906 117.516 112.906ZM124.216 103.818V114H122.73V103.818H124.216ZM127.703 103.818V114H126.216V103.818H127.703ZM131.925 114.169C131.441 114.169 131.003 114.08 130.612 113.901C130.221 113.718 129.911 113.455 129.683 113.11C129.457 112.765 129.344 112.343 129.344 111.842C129.344 111.411 129.427 111.057 129.593 110.778C129.759 110.5 129.982 110.28 130.264 110.117C130.546 109.955 130.861 109.832 131.209 109.749C131.557 109.666 131.911 109.603 132.273 109.56C132.73 109.507 133.101 109.464 133.386 109.431C133.671 109.395 133.879 109.337 134.008 109.257C134.137 109.178 134.202 109.048 134.202 108.869V108.835C134.202 108.4 134.079 108.064 133.834 107.825C133.592 107.587 133.231 107.467 132.75 107.467C132.25 107.467 131.855 107.578 131.567 107.8C131.282 108.019 131.085 108.263 130.975 108.531L129.578 108.213C129.744 107.749 129.986 107.375 130.304 107.089C130.625 106.801 130.995 106.592 131.413 106.463C131.83 106.33 132.269 106.264 132.73 106.264C133.035 106.264 133.358 106.301 133.7 106.374C134.044 106.443 134.366 106.572 134.664 106.761C134.966 106.95 135.213 107.22 135.405 107.572C135.597 107.92 135.693 108.372 135.693 108.929V114H134.241V112.956H134.182C134.086 113.148 133.942 113.337 133.749 113.523C133.557 113.708 133.31 113.862 133.009 113.985C132.707 114.108 132.346 114.169 131.925 114.169ZM132.248 112.976C132.659 112.976 133.01 112.895 133.302 112.732C133.597 112.57 133.821 112.358 133.973 112.096C134.129 111.831 134.207 111.547 134.207 111.246V110.261C134.154 110.314 134.051 110.364 133.898 110.411C133.749 110.454 133.579 110.492 133.386 110.525C133.194 110.555 133.007 110.583 132.825 110.609C132.642 110.633 132.49 110.652 132.367 110.669C132.079 110.705 131.815 110.767 131.577 110.853C131.341 110.939 131.152 111.063 131.01 111.226C130.871 111.385 130.801 111.597 130.801 111.862C130.801 112.23 130.937 112.509 131.209 112.697C131.481 112.883 131.827 112.976 132.248 112.976ZM141.238 106.364V107.557H137.067V106.364H141.238ZM138.185 104.534H139.672V111.758C139.672 112.046 139.715 112.263 139.801 112.409C139.887 112.552 139.998 112.649 140.134 112.702C140.273 112.752 140.424 112.777 140.586 112.777C140.706 112.777 140.81 112.769 140.9 112.752C140.989 112.736 141.059 112.722 141.108 112.712L141.377 113.94C141.291 113.973 141.168 114.007 141.009 114.04C140.85 114.076 140.651 114.096 140.412 114.099C140.021 114.106 139.657 114.036 139.319 113.891C138.981 113.745 138.707 113.519 138.498 113.214C138.29 112.91 138.185 112.527 138.185 112.066V104.534ZM146.091 114.154C145.339 114.154 144.691 113.993 144.147 113.672C143.607 113.347 143.19 112.891 142.895 112.305C142.603 111.715 142.457 111.024 142.457 110.232C142.457 109.449 142.603 108.76 142.895 108.163C143.19 107.567 143.6 107.101 144.127 106.766C144.658 106.432 145.278 106.264 145.987 106.264C146.418 106.264 146.835 106.335 147.24 106.478C147.644 106.621 148.007 106.844 148.328 107.149C148.65 107.454 148.904 107.85 149.089 108.337C149.275 108.821 149.368 109.41 149.368 110.102V110.629H143.297V109.516H147.911C147.911 109.125 147.831 108.778 147.672 108.477C147.513 108.172 147.289 107.931 147.001 107.756C146.716 107.58 146.381 107.492 145.997 107.492C145.579 107.492 145.215 107.595 144.903 107.8C144.595 108.003 144.356 108.268 144.187 108.596C144.021 108.921 143.939 109.274 143.939 109.655V110.525C143.939 111.035 144.028 111.469 144.207 111.827C144.389 112.185 144.643 112.459 144.968 112.648C145.292 112.833 145.672 112.926 146.106 112.926C146.388 112.926 146.645 112.886 146.877 112.807C147.109 112.724 147.309 112.601 147.478 112.439C147.647 112.277 147.777 112.076 147.866 111.837L149.273 112.091C149.16 112.505 148.958 112.868 148.667 113.18C148.378 113.488 148.015 113.728 147.578 113.901C147.144 114.07 146.648 114.154 146.091 114.154ZM151.017 114V106.364H152.454V107.577H152.533C152.672 107.166 152.918 106.843 153.269 106.607C153.624 106.369 154.025 106.249 154.472 106.249C154.565 106.249 154.674 106.253 154.8 106.259C154.93 106.266 155.031 106.274 155.104 106.284V107.706C155.044 107.689 154.938 107.671 154.785 107.651C154.633 107.628 154.48 107.616 154.328 107.616C153.977 107.616 153.663 107.691 153.388 107.84C153.117 107.986 152.901 108.19 152.742 108.452C152.583 108.71 152.503 109.005 152.503 109.337V114H151.017ZM158.544 114.169C158.06 114.169 157.622 114.08 157.231 113.901C156.84 113.718 156.53 113.455 156.302 113.11C156.076 112.765 155.964 112.343 155.964 111.842C155.964 111.411 156.046 111.057 156.212 110.778C156.378 110.5 156.602 110.28 156.883 110.117C157.165 109.955 157.48 109.832 157.828 109.749C158.176 109.666 158.531 109.603 158.892 109.56C159.349 109.507 159.72 109.464 160.006 109.431C160.291 109.395 160.498 109.337 160.627 109.257C160.756 109.178 160.821 109.048 160.821 108.869V108.835C160.821 108.4 160.698 108.064 160.453 107.825C160.211 107.587 159.85 107.467 159.369 107.467C158.869 107.467 158.474 107.578 158.186 107.8C157.901 108.019 157.704 108.263 157.594 108.531L156.197 108.213C156.363 107.749 156.605 107.375 156.923 107.089C157.245 106.801 157.614 106.592 158.032 106.463C158.449 106.33 158.889 106.264 159.349 106.264C159.654 106.264 159.977 106.301 160.319 106.374C160.663 106.443 160.985 106.572 161.283 106.761C161.585 106.95 161.832 107.22 162.024 107.572C162.216 107.92 162.312 108.372 162.312 108.929V114H160.861V112.956H160.801C160.705 113.148 160.561 113.337 160.368 113.523C160.176 113.708 159.929 113.862 159.628 113.985C159.326 114.108 158.965 114.169 158.544 114.169ZM158.867 112.976C159.278 112.976 159.629 112.895 159.921 112.732C160.216 112.57 160.44 112.358 160.592 112.096C160.748 111.831 160.826 111.547 160.826 111.246V110.261C160.773 110.314 160.67 110.364 160.518 110.411C160.368 110.454 160.198 110.492 160.006 110.525C159.813 110.555 159.626 110.583 159.444 110.609C159.261 110.633 159.109 110.652 158.986 110.669C158.698 110.705 158.434 110.767 158.196 110.853C157.961 110.939 157.772 111.063 157.629 111.226C157.49 111.385 157.42 111.597 157.42 111.862C157.42 112.23 157.556 112.509 157.828 112.697C158.1 112.883 158.446 112.976 158.867 112.976ZM165.779 103.818V114H164.292V103.818H165.779ZM168.758 114.094C168.486 114.094 168.253 113.998 168.057 113.806C167.861 113.611 167.764 113.375 167.764 113.1C167.764 112.828 167.861 112.596 168.057 112.404C168.253 112.209 168.486 112.111 168.758 112.111C169.03 112.111 169.263 112.209 169.459 112.404C169.655 112.596 169.752 112.828 169.752 113.1C169.752 113.282 169.706 113.45 169.613 113.602C169.524 113.751 169.404 113.871 169.255 113.96C169.106 114.05 168.94 114.094 168.758 114.094ZM168.758 108.536C168.486 108.536 168.253 108.438 168.057 108.243C167.861 108.047 167.764 107.814 167.764 107.542C167.764 107.27 167.861 107.038 168.057 106.846C168.253 106.65 168.486 106.553 168.758 106.553C169.03 106.553 169.263 106.65 169.459 106.846C169.655 107.038 169.752 107.27 169.752 107.542C169.752 107.724 169.706 107.892 169.613 108.044C169.524 108.193 169.404 108.312 169.255 108.402C169.106 108.491 168.94 108.536 168.758 108.536Z" fill="#8D8D8D"/>
<path d="M180.119 114V103.818H186.502V105.141H181.655V108.243H186.169V109.56H181.655V112.678H186.562V114H180.119ZM188.052 105.141V103.818H195.932V105.141H192.755V114H191.224V105.141H188.052ZM197.673 114V103.818H199.21V108.243H204.286V103.818H205.827V114H204.286V109.56H199.21V114H197.673Z" fill="white"/>
<path d="M17.4148 159H16.3068L19.5114 150.273H20.6023L23.8068 159H22.6989L20.0909 151.653H20.0227L17.4148 159ZM17.8239 155.591H22.2898V156.528H17.8239V155.591ZM29.5618 152.455L27.1413 159H26.1186L23.6982 152.455H24.7891L26.5959 157.67H26.6641L28.4709 152.455H29.5618ZM33.3991 159.136C32.7685 159.136 32.2244 158.997 31.767 158.719C31.3125 158.438 30.9616 158.045 30.7145 157.543C30.4702 157.037 30.348 156.449 30.348 155.778C30.348 155.108 30.4702 154.517 30.7145 154.006C30.9616 153.491 31.3054 153.091 31.7457 152.804C32.1889 152.514 32.706 152.369 33.2969 152.369C33.6378 152.369 33.9744 152.426 34.3068 152.54C34.6392 152.653 34.9418 152.838 35.2145 153.094C35.4872 153.347 35.7045 153.682 35.8665 154.099C36.0284 154.517 36.1094 155.031 36.1094 155.642V156.068H31.0639V155.199H35.0866C35.0866 154.83 35.0128 154.5 34.8651 154.21C34.7202 153.92 34.5128 153.692 34.2429 153.524C33.9759 153.357 33.6605 153.273 33.2969 153.273C32.8963 153.273 32.5497 153.372 32.2571 153.571C31.9673 153.767 31.7443 154.023 31.5881 154.338C31.4318 154.653 31.3537 154.991 31.3537 155.352V155.932C31.3537 156.426 31.4389 156.845 31.6094 157.189C31.7827 157.53 32.0227 157.79 32.3295 157.969C32.6364 158.145 32.9929 158.233 33.3991 158.233C33.6634 158.233 33.902 158.196 34.1151 158.122C34.331 158.045 34.517 157.932 34.6733 157.781C34.8295 157.628 34.9503 157.437 35.0355 157.21L36.0071 157.483C35.9048 157.812 35.733 158.102 35.4915 158.352C35.25 158.599 34.9517 158.793 34.5966 158.932C34.2415 159.068 33.8423 159.136 33.3991 159.136ZM37.6392 159V152.455H38.6108V153.443H38.679C38.7983 153.119 39.0142 152.857 39.3267 152.655C39.6392 152.453 39.9915 152.352 40.3835 152.352C40.4574 152.352 40.5497 152.354 40.6605 152.357C40.7713 152.359 40.8551 152.364 40.9119 152.369V153.392C40.8778 153.384 40.7997 153.371 40.6776 153.354C40.5582 153.334 40.4318 153.324 40.2983 153.324C39.9801 153.324 39.696 153.391 39.446 153.524C39.1989 153.655 39.0028 153.837 38.858 154.07C38.7159 154.3 38.6449 154.562 38.6449 154.858V159H37.6392ZM44.0302 159.153C43.6154 159.153 43.239 159.075 42.9009 158.919C42.5629 158.76 42.2944 158.531 42.0955 158.233C41.8967 157.932 41.7972 157.568 41.7972 157.142C41.7972 156.767 41.8711 156.463 42.0188 156.23C42.1665 155.994 42.364 155.81 42.6112 155.676C42.8583 155.543 43.131 155.443 43.4293 155.378C43.7305 155.31 44.033 155.256 44.337 155.216C44.7347 155.165 45.0572 155.126 45.3043 155.101C45.5543 155.072 45.7362 155.026 45.8498 154.96C45.9663 154.895 46.0245 154.781 46.0245 154.619V154.585C46.0245 154.165 45.9094 153.838 45.6793 153.605C45.4521 153.372 45.1069 153.256 44.6438 153.256C44.1637 153.256 43.7873 153.361 43.5146 153.571C43.2418 153.781 43.0501 154.006 42.9393 154.244L41.9847 153.903C42.1552 153.506 42.3825 153.196 42.6665 152.974C42.9535 152.75 43.266 152.594 43.604 152.506C43.945 152.415 44.2802 152.369 44.6097 152.369C44.82 152.369 45.0614 152.395 45.3342 152.446C45.6097 152.494 45.8754 152.595 46.131 152.749C46.3896 152.902 46.604 153.134 46.7745 153.443C46.945 153.753 47.0302 154.168 47.0302 154.688V159H46.0245V158.114H45.9734C45.9052 158.256 45.7915 158.408 45.6325 158.57C45.4734 158.732 45.2617 158.869 44.9975 158.983C44.7333 159.097 44.4109 159.153 44.0302 159.153ZM44.1836 158.25C44.5813 158.25 44.9165 158.172 45.1893 158.016C45.4648 157.859 45.6722 157.658 45.8114 157.411C45.9535 157.163 46.0245 156.903 46.0245 156.631V155.71C45.9819 155.761 45.8881 155.808 45.7433 155.851C45.6012 155.891 45.4364 155.926 45.2489 155.957C45.0643 155.986 44.8839 156.011 44.7077 156.034C44.5344 156.054 44.3938 156.071 44.2859 156.085C44.0245 156.119 43.7802 156.175 43.5529 156.251C43.3285 156.325 43.1467 156.437 43.0075 156.588C42.8711 156.736 42.8029 156.937 42.8029 157.193C42.8029 157.543 42.9322 157.807 43.1907 157.986C43.4521 158.162 43.783 158.25 44.1836 158.25ZM51.5078 161.591C51.022 161.591 50.6044 161.528 50.255 161.403C49.9055 161.281 49.6143 161.119 49.3814 160.918C49.1513 160.719 48.968 160.506 48.8317 160.278L49.6328 159.716C49.7237 159.835 49.8388 159.972 49.978 160.125C50.1172 160.281 50.3075 160.416 50.549 160.53C50.7933 160.646 51.1129 160.705 51.5078 160.705C52.0362 160.705 52.4723 160.577 52.8161 160.321C53.1598 160.065 53.3317 159.665 53.3317 159.119V157.79H53.2464C53.1726 157.909 53.0675 158.057 52.9311 158.233C52.7976 158.406 52.6044 158.561 52.3516 158.697C52.1016 158.831 51.7635 158.898 51.3374 158.898C50.8089 158.898 50.3345 158.773 49.9141 158.523C49.4964 158.273 49.1655 157.909 48.9212 157.432C48.6797 156.955 48.5589 156.375 48.5589 155.693C48.5589 155.023 48.6768 154.439 48.9126 153.942C49.1484 153.442 49.4766 153.055 49.897 152.783C50.3175 152.507 50.8033 152.369 51.3544 152.369C51.7805 152.369 52.1186 152.44 52.3686 152.582C52.6214 152.722 52.8146 152.881 52.9482 153.06C53.0845 153.236 53.1896 153.381 53.2635 153.494H53.3658V152.455H54.3374V159.188C54.3374 159.75 54.2095 160.207 53.9538 160.56C53.701 160.915 53.3601 161.175 52.9311 161.339C52.505 161.507 52.0305 161.591 51.5078 161.591ZM51.4737 157.994C51.8771 157.994 52.218 157.902 52.4964 157.717C52.7749 157.533 52.9865 157.267 53.1314 156.92C53.2763 156.574 53.3487 156.159 53.3487 155.676C53.3487 155.205 53.2777 154.788 53.1357 154.428C52.9936 154.067 52.7834 153.784 52.505 153.58C52.2266 153.375 51.8828 153.273 51.4737 153.273C51.0476 153.273 50.6925 153.381 50.4084 153.597C50.1271 153.812 49.9155 154.102 49.7734 154.466C49.6342 154.83 49.5646 155.233 49.5646 155.676C49.5646 156.131 49.6357 156.533 49.7777 156.882C49.9226 157.229 50.1357 157.501 50.4169 157.7C50.701 157.896 51.0533 157.994 51.4737 157.994ZM58.9226 159.136C58.2919 159.136 57.7479 158.997 57.2905 158.719C56.8359 158.438 56.4851 158.045 56.2379 157.543C55.9936 157.037 55.8714 156.449 55.8714 155.778C55.8714 155.108 55.9936 154.517 56.2379 154.006C56.4851 153.491 56.8288 153.091 57.2692 152.804C57.7124 152.514 58.2294 152.369 58.8203 152.369C59.1612 152.369 59.4979 152.426 59.8303 152.54C60.1626 152.653 60.4652 152.838 60.7379 153.094C61.0107 153.347 61.228 153.682 61.3899 154.099C61.5518 154.517 61.6328 155.031 61.6328 155.642V156.068H56.5874V155.199H60.6101C60.6101 154.83 60.5362 154.5 60.3885 154.21C60.2436 153.92 60.0362 153.692 59.7663 153.524C59.4993 153.357 59.1839 153.273 58.8203 153.273C58.4197 153.273 58.0732 153.372 57.7805 153.571C57.4908 153.767 57.2678 154.023 57.1115 154.338C56.9553 154.653 56.8771 154.991 56.8771 155.352V155.932C56.8771 156.426 56.9624 156.845 57.1328 157.189C57.3061 157.53 57.5462 157.79 57.853 157.969C58.1598 158.145 58.5163 158.233 58.9226 158.233C59.1868 158.233 59.4254 158.196 59.6385 158.122C59.8544 158.045 60.0405 157.932 60.1967 157.781C60.353 157.628 60.4737 157.437 60.5589 157.21L61.5305 157.483C61.4283 157.812 61.2564 158.102 61.0149 158.352C60.7734 158.599 60.4751 158.793 60.12 158.932C59.7649 159.068 59.3658 159.136 58.9226 159.136ZM67.032 159H65.924L69.1286 150.273H70.2195L73.424 159H72.3161L69.7081 151.653H69.6399L67.032 159ZM67.4411 155.591H71.907V156.528H67.4411V155.591ZM74.7834 159V150.273H77.7322C78.4169 150.273 78.9766 150.396 79.4112 150.643C79.8487 150.888 80.1726 151.219 80.3828 151.636C80.593 152.054 80.6982 152.52 80.6982 153.034C80.6982 153.548 80.593 154.016 80.3828 154.436C80.1754 154.857 79.8544 155.192 79.4197 155.442C78.9851 155.689 78.4283 155.812 77.7493 155.812H75.6357V154.875H77.7152C78.1839 154.875 78.5604 154.794 78.8445 154.632C79.1286 154.47 79.3345 154.251 79.4624 153.976C79.593 153.697 79.6584 153.384 79.6584 153.034C79.6584 152.685 79.593 152.372 79.4624 152.097C79.3345 151.821 79.1271 151.605 78.8402 151.449C78.5533 151.29 78.1726 151.21 77.6982 151.21H75.8402V159H74.7834ZM82.4006 159V150.273H85.3494C86.0313 150.273 86.5909 150.389 87.0284 150.622C87.4659 150.852 87.7898 151.169 88 151.572C88.2102 151.976 88.3153 152.435 88.3153 152.949C88.3153 153.463 88.2102 153.919 88 154.317C87.7898 154.714 87.4673 155.027 87.0327 155.254C86.598 155.479 86.0426 155.591 85.3665 155.591H82.9801V154.636H85.3324C85.7983 154.636 86.1733 154.568 86.4574 154.432C86.7443 154.295 86.9517 154.102 87.0795 153.852C87.2102 153.599 87.2756 153.298 87.2756 152.949C87.2756 152.599 87.2102 152.294 87.0795 152.033C86.9489 151.771 86.7401 151.57 86.4531 151.428C86.1662 151.283 85.7869 151.21 85.3153 151.21H83.4574V159H82.4006ZM86.5085 155.08L88.6562 159H87.429L85.3153 155.08H86.5085Z" fill="#8D8D8D"/>
<path d="M17.3315 188V186H21.3306V176.003H20.6626V176.671H19.999V177.334H19.3311V178.002H17.3315V176.003H17.9995V175.335H18.6631V174.667H19.3311V174.003H23.3301V186H27.3291V188H17.3315ZM35.3359 188V184.001H29.3374V180.002H30.0054V179.334H30.6689V178.67H31.3369V178.002H32.0049V177.334H32.6685V176.671H33.3364V176.003H34.0044V175.335H34.6724V174.667H35.3359V174.003H37.3354V176.003H36.6719V176.671H36.0039V177.334H35.3359V178.002H34.6724V178.67H34.0044V179.334H33.3364V180.002H32.6685V180.67H32.0049V182.001H35.3359V180.002H37.3354V182.001H39.335V184.001H37.3354V188H35.3359ZM41.3433 188V186H43.3428V188H41.3433ZM52.0176 186V185.337H52.6855V184.669H53.3491V180.002H52.6855V180.67H52.0176V181.333H51.3496V182.001H50.686V182.669H50.0181V183.337H49.3501V184.001H48.6821V184.669H48.0186V185.337H48.6821V186H52.0176ZM48.0186 182.001V181.333H48.6821V180.67H49.3501V180.002H50.0181V179.334H50.686V178.67H51.3496V178.002H52.0176V177.334H52.6855V176.671H52.0176V176.003H48.6821V176.671H48.0186V177.334H47.3506V182.001H48.0186ZM47.3506 188V187.336H46.6826V186.668H46.019V186H45.3511V176.003H46.019V175.335H46.6826V174.667H47.3506V174.003H53.3491V174.667H54.0171V175.335H54.6851V176.003H55.3486V186H54.6851V186.668H54.0171V187.336H53.3491V188H47.3506ZM59.3564 188V187.336H58.6885V186.668H58.0249V186H57.3569V184.001H59.3564V184.669H60.0244V185.337H60.688V186H64.0234V185.337H64.6914V184.669H65.355V183.337H64.6914V182.669H64.0234V182.001H61.356V180.002H64.0234V179.334H64.6914V178.67H65.355V177.334H64.6914V176.671H64.0234V176.003H60.688V176.671H60.0244V177.334H59.3564V178.002H57.3569V176.003H58.0249V175.335H58.6885V174.667H59.3564V174.003H65.355V174.667H66.0229V175.335H66.6909V176.003H67.3545V180.002H66.6909V180.67H66.0229V181.333H66.6909V182.001H67.3545V186H66.6909V186.668H66.0229V187.336H65.355V188H59.3564ZM78.0288 186.668V185.337H76.6973V186.668H78.0288ZM76.0293 188V187.336H75.3613V184.669H76.0293V184.001H78.6968V184.669H79.3604V187.336H78.6968V188H76.0293ZM72.0303 176.671V175.335H70.6943V176.671H72.0303ZM70.0308 178.002V177.334H69.3628V174.667H70.0308V174.003H72.6938V174.667H73.3618V177.334H72.6938V178.002H70.0308ZM69.3628 188V184.001H70.0308V183.337H70.6943V182.669H71.3623V182.001H72.0303V181.333H72.6938V180.67H73.3618V180.002H74.0298V179.334H74.6978V178.67H75.3613V178.002H76.0293V177.334H76.6973V176.671H77.3608V174.003H79.3604V178.002H78.6968V178.67H78.0288V179.334H77.3608V180.002H76.6973V180.67H76.0293V181.333H75.3613V182.001H74.6978V182.669H74.0298V183.337H73.3618V184.001H72.6938V184.669H72.0303V185.337H71.3623V188H69.3628Z" fill="#F4F4F4"/>
<line x1="16" y1="195.5" x2="81" y2="195.5" stroke="white" stroke-dasharray="3 3"/>
<path d="M158.057 159V150.273H161.108C161.716 150.273 162.217 150.378 162.612 150.588C163.007 150.795 163.301 151.075 163.494 151.428C163.688 151.777 163.784 152.165 163.784 152.591C163.784 152.966 163.717 153.276 163.584 153.52C163.453 153.764 163.28 153.957 163.064 154.099C162.851 154.241 162.619 154.347 162.369 154.415V154.5C162.636 154.517 162.905 154.611 163.175 154.781C163.445 154.952 163.67 155.196 163.852 155.514C164.034 155.832 164.125 156.222 164.125 156.682C164.125 157.119 164.026 157.513 163.827 157.862C163.628 158.212 163.314 158.489 162.885 158.693C162.456 158.898 161.898 159 161.21 159H158.057ZM159.114 158.062H161.21C161.901 158.062 162.391 157.929 162.68 157.662C162.973 157.392 163.119 157.065 163.119 156.682C163.119 156.386 163.044 156.114 162.893 155.864C162.743 155.611 162.528 155.409 162.25 155.259C161.972 155.105 161.642 155.028 161.261 155.028H159.114V158.062ZM159.114 154.108H161.074C161.392 154.108 161.679 154.045 161.935 153.92C162.193 153.795 162.398 153.619 162.548 153.392C162.702 153.165 162.778 152.898 162.778 152.591C162.778 152.207 162.645 151.882 162.378 151.615C162.111 151.345 161.688 151.21 161.108 151.21H159.114V154.108ZM168.384 159.136C167.793 159.136 167.275 158.996 166.829 158.714C166.386 158.433 166.039 158.04 165.789 157.534C165.542 157.028 165.418 156.437 165.418 155.761C165.418 155.08 165.542 154.484 165.789 153.976C166.039 153.467 166.386 153.072 166.829 152.791C167.275 152.51 167.793 152.369 168.384 152.369C168.975 152.369 169.492 152.51 169.935 152.791C170.381 153.072 170.728 153.467 170.975 153.976C171.225 154.484 171.35 155.08 171.35 155.761C171.35 156.437 171.225 157.028 170.975 157.534C170.728 158.04 170.381 158.433 169.935 158.714C169.492 158.996 168.975 159.136 168.384 159.136ZM168.384 158.233C168.833 158.233 169.202 158.118 169.492 157.888C169.782 157.658 169.996 157.355 170.136 156.98C170.275 156.605 170.344 156.199 170.344 155.761C170.344 155.324 170.275 154.916 170.136 154.538C169.996 154.161 169.782 153.855 169.492 153.622C169.202 153.389 168.833 153.273 168.384 153.273C167.935 153.273 167.566 153.389 167.276 153.622C166.987 153.855 166.772 154.161 166.633 154.538C166.494 154.916 166.424 155.324 166.424 155.761C166.424 156.199 166.494 156.605 166.633 156.98C166.772 157.355 166.987 157.658 167.276 157.888C167.566 158.118 167.935 158.233 168.384 158.233ZM172.885 159V152.455H173.857V153.443H173.925C174.044 153.119 174.26 152.857 174.573 152.655C174.885 152.453 175.238 152.352 175.63 152.352C175.703 152.352 175.796 152.354 175.907 152.357C176.017 152.359 176.101 152.364 176.158 152.369V153.392C176.124 153.384 176.046 153.371 175.924 153.354C175.804 153.334 175.678 153.324 175.544 153.324C175.226 153.324 174.942 153.391 174.692 153.524C174.445 153.655 174.249 153.837 174.104 154.07C173.962 154.3 173.891 154.562 173.891 154.858V159H172.885ZM177.35 159V152.455H178.322V153.443H178.39C178.509 153.119 178.725 152.857 179.038 152.655C179.35 152.453 179.702 152.352 180.094 152.352C180.168 152.352 180.261 152.354 180.371 152.357C180.482 152.359 180.566 152.364 180.623 152.369V153.392C180.589 153.384 180.511 153.371 180.388 153.354C180.269 153.334 180.143 153.324 180.009 153.324C179.691 153.324 179.407 153.391 179.157 153.524C178.91 153.655 178.714 153.837 178.569 154.07C178.427 154.3 178.356 154.562 178.356 154.858V159H177.35ZM184.275 159.136C183.684 159.136 183.165 158.996 182.719 158.714C182.276 158.433 181.93 158.04 181.68 157.534C181.433 157.028 181.309 156.437 181.309 155.761C181.309 155.08 181.433 154.484 181.68 153.976C181.93 153.467 182.276 153.072 182.719 152.791C183.165 152.51 183.684 152.369 184.275 152.369C184.866 152.369 185.383 152.51 185.826 152.791C186.272 153.072 186.619 153.467 186.866 153.976C187.116 154.484 187.241 155.08 187.241 155.761C187.241 156.437 187.116 157.028 186.866 157.534C186.619 158.04 186.272 158.433 185.826 158.714C185.383 158.996 184.866 159.136 184.275 159.136ZM184.275 158.233C184.724 158.233 185.093 158.118 185.383 157.888C185.673 157.658 185.887 157.355 186.026 156.98C186.165 156.605 186.235 156.199 186.235 155.761C186.235 155.324 186.165 154.916 186.026 154.538C185.887 154.161 185.673 153.855 185.383 153.622C185.093 153.389 184.724 153.273 184.275 153.273C183.826 153.273 183.457 153.389 183.167 153.622C182.877 153.855 182.663 154.161 182.523 154.538C182.384 154.916 182.315 155.324 182.315 155.761C182.315 156.199 182.384 156.605 182.523 156.98C182.663 157.355 182.877 157.658 183.167 157.888C183.457 158.118 183.826 158.233 184.275 158.233ZM190.036 159L188.042 152.455H189.099L190.513 157.466H190.582L191.979 152.455H193.053L194.434 157.449H194.502L195.917 152.455H196.974L194.979 159H193.991L192.559 153.972H192.457L191.025 159H190.036ZM202.173 159H201.065L204.269 150.273H205.36L208.565 159H207.457L204.849 151.653H204.781L202.173 159ZM202.582 155.591H207.048V156.528H202.582V155.591ZM209.924 159V150.273H212.873C213.558 150.273 214.117 150.396 214.552 150.643C214.989 150.888 215.313 151.219 215.523 151.636C215.734 152.054 215.839 152.52 215.839 153.034C215.839 153.548 215.734 154.016 215.523 154.436C215.316 154.857 214.995 155.192 214.56 155.442C214.126 155.689 213.569 155.812 212.89 155.812H210.776V154.875H212.856C213.325 154.875 213.701 154.794 213.985 154.632C214.269 154.47 214.475 154.251 214.603 153.976C214.734 153.697 214.799 153.384 214.799 153.034C214.799 152.685 214.734 152.372 214.603 152.097C214.475 151.821 214.268 151.605 213.981 151.449C213.694 151.29 213.313 151.21 212.839 151.21H210.981V159H209.924ZM217.541 159V150.273H220.49C221.172 150.273 221.732 150.389 222.169 150.622C222.607 150.852 222.93 151.169 223.141 151.572C223.351 151.976 223.456 152.435 223.456 152.949C223.456 153.463 223.351 153.919 223.141 154.317C222.93 154.714 222.608 155.027 222.173 155.254C221.739 155.479 221.183 155.591 220.507 155.591H218.121V154.636H220.473C220.939 154.636 221.314 154.568 221.598 154.432C221.885 154.295 222.092 154.102 222.22 153.852C222.351 153.599 222.416 153.298 222.416 152.949C222.416 152.599 222.351 152.294 222.22 152.033C222.089 151.771 221.881 151.57 221.594 151.428C221.307 151.283 220.928 151.21 220.456 151.21H218.598V159H217.541ZM221.649 155.08L223.797 159H222.57L220.456 155.08H221.649Z" fill="#8D8D8D"/>
<path d="M158.332 188V186H162.331V176.003H161.663V176.671H160.999V177.334H160.331V178.002H158.332V176.003H159V175.335H159.663V174.667H160.331V174.003H164.33V186H168.329V188H158.332ZM170.337 188V182.001H171.005V181.333H171.669V180.67H172.337V180.002H177.004V179.334H177.672V178.67H178.335V177.334H177.672V176.671H177.004V176.003H173.668V176.671H173.005V177.334H172.337V178.002H170.337V176.003H171.005V175.335H171.669V174.667H172.337V174.003H178.335V174.667H179.003V175.335H179.671V176.003H180.335V180.002H179.671V180.67H179.003V181.333H178.335V182.001H173.668V182.669H173.005V183.337H172.337V186H178.335V184.001H180.335V188H170.337ZM182.343 188V186H184.343V188H182.343ZM193.018 186V185.337H193.686V184.669H194.349V180.002H193.686V180.67H193.018V181.333H192.35V182.001H191.686V182.669H191.018V183.337H190.35V184.001H189.682V184.669H189.019V185.337H189.682V186H193.018ZM189.019 182.001V181.333H189.682V180.67H190.35V180.002H191.018V179.334H191.686V178.67H192.35V178.002H193.018V177.334H193.686V176.671H193.018V176.003H189.682V176.671H189.019V177.334H188.351V182.001H189.019ZM188.351 188V187.336H187.683V186.668H187.019V186H186.351V176.003H187.019V175.335H187.683V174.667H188.351V174.003H194.349V174.667H195.017V175.335H195.685V176.003H196.349V186H195.685V186.668H195.017V187.336H194.349V188H188.351ZM200.356 188V187.336H199.688V186.668H199.025V186H198.357V184.001H200.356V184.669H201.024V185.337H201.688V186H205.023V185.337H205.691V184.669H206.355V183.337H205.691V182.669H205.023V182.001H202.356V180.002H205.023V179.334H205.691V178.67H206.355V177.334H205.691V176.671H205.023V176.003H201.688V176.671H201.024V177.334H200.356V178.002H198.357V176.003H199.025V175.335H199.688V174.667H200.356V174.003H206.355V174.667H207.023V175.335H207.691V176.003H208.354V180.002H207.691V180.67H207.023V181.333H207.691V182.001H208.354V186H207.691V186.668H207.023V187.336H206.355V188H200.356ZM219.029 186.668V185.337H217.697V186.668H219.029ZM217.029 188V187.336H216.361V184.669H217.029V184.001H219.697V184.669H220.36V187.336H219.697V188H217.029ZM213.03 176.671V175.335H211.694V176.671H213.03ZM211.031 178.002V177.334H210.363V174.667H211.031V174.003H213.694V174.667H214.362V177.334H213.694V178.002H211.031ZM210.363 188V184.001H211.031V183.337H211.694V182.669H212.362V182.001H213.03V181.333H213.694V180.67H214.362V180.002H215.03V179.334H215.698V178.67H216.361V178.002H217.029V177.334H217.697V176.671H218.361V174.003H220.36V178.002H219.697V178.67H219.029V179.334H218.361V180.002H217.697V180.67H217.029V181.333H216.361V182.001H215.698V182.669H215.03V183.337H214.362V184.001H213.694V184.669H213.03V185.337H212.362V188H210.363Z" fill="#F4F4F4"/>
<path d="M24.0795 219H23.0227C22.9602 218.696 22.8509 218.429 22.6946 218.199C22.5412 217.969 22.3537 217.776 22.1321 217.619C21.9134 217.46 21.6705 217.341 21.4034 217.261C21.1364 217.182 20.858 217.142 20.5682 217.142C20.0398 217.142 19.5611 217.276 19.1321 217.543C18.706 217.81 18.3665 218.203 18.1136 218.723C17.8636 219.243 17.7386 219.881 17.7386 220.636C17.7386 221.392 17.8636 222.03 18.1136 222.55C18.3665 223.07 18.706 223.463 19.1321 223.73C19.5611 223.997 20.0398 224.131 20.5682 224.131C20.858 224.131 21.1364 224.091 21.4034 224.011C21.6705 223.932 21.9134 223.814 22.1321 223.658C22.3537 223.499 22.5412 223.304 22.6946 223.074C22.8509 222.841 22.9602 222.574 23.0227 222.273H24.0795C24 222.719 23.8551 223.118 23.6449 223.47C23.4347 223.822 23.1733 224.122 22.8608 224.369C22.5483 224.614 22.1974 224.8 21.8082 224.928C21.4219 225.055 21.0085 225.119 20.5682 225.119C19.8239 225.119 19.1619 224.938 18.5824 224.574C18.0028 224.21 17.5469 223.693 17.2145 223.023C16.8821 222.352 16.7159 221.557 16.7159 220.636C16.7159 219.716 16.8821 218.92 17.2145 218.25C17.5469 217.58 18.0028 217.062 18.5824 216.699C19.1619 216.335 19.8239 216.153 20.5682 216.153C21.0085 216.153 21.4219 216.217 21.8082 216.345C22.1974 216.473 22.5483 216.661 22.8608 216.908C23.1733 217.152 23.4347 217.45 23.6449 217.803C23.8551 218.152 24 218.551 24.0795 219ZM28.4805 225H25.7873V216.273H28.5998C29.4464 216.273 30.1708 216.447 30.7731 216.797C31.3754 217.143 31.837 217.642 32.158 218.293C32.479 218.94 32.6396 219.716 32.6396 220.619C32.6396 221.528 32.4776 222.311 32.1538 222.967C31.8299 223.621 31.3583 224.124 30.739 224.476C30.1197 224.825 29.3668 225 28.4805 225ZM26.8441 224.062H28.4123C29.1339 224.062 29.7319 223.923 30.2063 223.645C30.6808 223.366 31.0344 222.97 31.2674 222.456C31.5004 221.942 31.6168 221.33 31.6168 220.619C31.6168 219.915 31.5018 219.308 31.2717 218.8C31.0415 218.288 30.6978 217.896 30.2404 217.624C29.783 217.348 29.2134 217.21 28.5316 217.21H26.8441V224.062ZM34.4123 225V216.273H37.3612C38.0458 216.273 38.6055 216.396 39.0401 216.643C39.4776 216.888 39.8015 217.219 40.0117 217.636C40.2219 218.054 40.3271 218.52 40.3271 219.034C40.3271 219.548 40.2219 220.016 40.0117 220.436C39.8043 220.857 39.4833 221.192 39.0487 221.442C38.614 221.689 38.0572 221.812 37.3782 221.812H35.2646V220.875H37.3441C37.8129 220.875 38.1893 220.794 38.4734 220.632C38.7575 220.47 38.9634 220.251 39.0913 219.976C39.2219 219.697 39.2873 219.384 39.2873 219.034C39.2873 218.685 39.2219 218.372 39.0913 218.097C38.9634 217.821 38.756 217.605 38.4691 217.449C38.1822 217.29 37.8015 217.21 37.3271 217.21H35.4691V225H34.4123Z" fill="#8D8D8D"/>
<path d="M16.8877 247V245.667H19.5537V239.002H19.1084V239.447H18.666V239.89H18.2207V240.335H16.8877V239.002H17.333V238.557H17.7754V238.111H18.2207V237.669H20.8867V245.667H23.5527V247H16.8877ZM26.2246 247V246.558H25.7793V246.112H25.3369V245.667H24.8916V244.334H26.2246V244.779H26.6699V245.225H27.1123V245.667H29.3359V245.225H29.7812V244.779H30.2236V243.892H29.7812V243.446H29.3359V243.001H27.5576V241.668H29.3359V241.223H29.7812V240.78H30.2236V239.89H29.7812V239.447H29.3359V239.002H27.1123V239.447H26.6699V239.89H26.2246V240.335H24.8916V239.002H25.3369V238.557H25.7793V238.111H26.2246V237.669H30.2236V238.111H30.6689V238.557H31.1143V239.002H31.5566V241.668H31.1143V242.113H30.6689V242.556H31.1143V243.001H31.5566V245.667H31.1143V246.112H30.6689V246.558H30.2236V247H26.2246ZM37.3398 245.667V245.225H37.7852V244.779H38.2275V241.668H37.7852V242.113H37.3398V242.556H36.8945V243.001H36.4521V243.446H36.0068V243.892H35.5615V244.334H35.1162V244.779H34.6738V245.225H35.1162V245.667H37.3398ZM34.6738 243.001V242.556H35.1162V242.113H35.5615V241.668H36.0068V241.223H36.4521V240.78H36.8945V240.335H37.3398V239.89H37.7852V239.447H37.3398V239.002H35.1162V239.447H34.6738V239.89H34.2285V243.001H34.6738ZM34.2285 247V246.558H33.7832V246.112H33.3408V245.667H32.8955V239.002H33.3408V238.557H33.7832V238.111H34.2285V237.669H38.2275V238.111H38.6729V238.557H39.1182V239.002H39.5605V245.667H39.1182V246.112H38.6729V246.558H38.2275V247H34.2285ZM46.6768 246.112V245.225H45.7891V246.112H46.6768ZM45.3438 247V246.558H44.8984V244.779H45.3438V244.334H47.1221V244.779H47.5645V246.558H47.1221V247H45.3438ZM42.6777 239.447V238.557H41.7871V239.447H42.6777ZM41.3447 240.335V239.89H40.8994V238.111H41.3447V237.669H43.1201V238.111H43.5654V239.89H43.1201V240.335H41.3447ZM40.8994 247V244.334H41.3447V243.892H41.7871V243.446H42.2324V243.001H42.6777V242.556H43.1201V242.113H43.5654V241.668H44.0107V241.223H44.4561V240.78H44.8984V240.335H45.3438V239.89H45.7891V239.447H46.2314V237.669H47.5645V240.335H47.1221V240.78H46.6768V241.223H46.2314V241.668H45.7891V242.113H45.3438V242.556H44.8984V243.001H44.4561V243.446H44.0107V243.892H43.5654V244.334H43.1201V244.779H42.6777V245.225H42.2324V247H40.8994Z" fill="#98FFFF"/>
<path d="M158.057 216.273H159.318L162.284 223.517H162.386L165.352 216.273H166.614V225H165.625V218.369H165.54L162.812 225H161.858L159.131 218.369H159.045V225H158.057V216.273ZM170.522 225.153C170.108 225.153 169.731 225.075 169.393 224.919C169.055 224.76 168.787 224.531 168.588 224.233C168.389 223.932 168.289 223.568 168.289 223.142C168.289 222.767 168.363 222.463 168.511 222.23C168.659 221.994 168.856 221.81 169.103 221.676C169.35 221.543 169.623 221.443 169.922 221.378C170.223 221.31 170.525 221.256 170.829 221.216C171.227 221.165 171.549 221.126 171.797 221.101C172.047 221.072 172.228 221.026 172.342 220.96C172.458 220.895 172.517 220.781 172.517 220.619V220.585C172.517 220.165 172.402 219.838 172.172 219.605C171.944 219.372 171.599 219.256 171.136 219.256C170.656 219.256 170.279 219.361 170.007 219.571C169.734 219.781 169.542 220.006 169.431 220.244L168.477 219.903C168.647 219.506 168.875 219.196 169.159 218.974C169.446 218.75 169.758 218.594 170.096 218.506C170.437 218.415 170.772 218.369 171.102 218.369C171.312 218.369 171.554 218.395 171.826 218.446C172.102 218.494 172.368 218.595 172.623 218.749C172.882 218.902 173.096 219.134 173.267 219.443C173.437 219.753 173.522 220.168 173.522 220.688V225H172.517V224.114H172.466C172.397 224.256 172.284 224.408 172.125 224.57C171.966 224.732 171.754 224.869 171.49 224.983C171.225 225.097 170.903 225.153 170.522 225.153ZM170.676 224.25C171.074 224.25 171.409 224.172 171.681 224.016C171.957 223.859 172.164 223.658 172.304 223.411C172.446 223.163 172.517 222.903 172.517 222.631V221.71C172.474 221.761 172.38 221.808 172.235 221.851C172.093 221.891 171.929 221.926 171.741 221.957C171.556 221.986 171.376 222.011 171.2 222.034C171.027 222.054 170.886 222.071 170.778 222.085C170.517 222.119 170.272 222.175 170.045 222.251C169.821 222.325 169.639 222.437 169.5 222.588C169.363 222.736 169.295 222.937 169.295 223.193C169.295 223.543 169.424 223.807 169.683 223.986C169.944 224.162 170.275 224.25 170.676 224.25ZM178.205 218.455V219.307H174.812V218.455H178.205ZM175.801 216.886H176.807V223.125C176.807 223.409 176.848 223.622 176.93 223.764C177.016 223.903 177.124 223.997 177.254 224.045C177.388 224.091 177.528 224.114 177.676 224.114C177.787 224.114 177.878 224.108 177.949 224.097C178.02 224.082 178.077 224.071 178.119 224.062L178.324 224.966C178.256 224.991 178.161 225.017 178.038 225.043C177.916 225.071 177.761 225.085 177.574 225.085C177.29 225.085 177.011 225.024 176.739 224.902C176.469 224.78 176.244 224.594 176.065 224.344C175.889 224.094 175.801 223.778 175.801 223.398V216.886ZM183.842 222.324V218.455H184.848V225H183.842V223.892H183.774C183.621 224.224 183.382 224.507 183.058 224.74C182.734 224.97 182.325 225.085 181.831 225.085C181.422 225.085 181.058 224.996 180.74 224.817C180.422 224.635 180.172 224.362 179.99 223.999C179.808 223.632 179.717 223.17 179.717 222.614V218.455H180.723V222.545C180.723 223.023 180.857 223.403 181.124 223.688C181.393 223.972 181.737 224.114 182.155 224.114C182.405 224.114 182.659 224.05 182.918 223.922C183.179 223.794 183.398 223.598 183.574 223.334C183.753 223.07 183.842 222.733 183.842 222.324ZM186.69 225V218.455H187.662V219.443H187.73C187.849 219.119 188.065 218.857 188.377 218.655C188.69 218.453 189.042 218.352 189.434 218.352C189.508 218.352 189.6 218.354 189.711 218.357C189.822 218.359 189.906 218.364 189.963 218.369V219.392C189.929 219.384 189.85 219.371 189.728 219.354C189.609 219.334 189.483 219.324 189.349 219.324C189.031 219.324 188.747 219.391 188.497 219.524C188.25 219.655 188.054 219.837 187.909 220.07C187.767 220.3 187.696 220.562 187.696 220.858V225H186.69ZM191.155 225V218.455H192.161V225H191.155ZM191.666 217.364C191.47 217.364 191.301 217.297 191.159 217.163C191.02 217.03 190.95 216.869 190.95 216.682C190.95 216.494 191.02 216.334 191.159 216.2C191.301 216.067 191.47 216 191.666 216C191.862 216 192.03 216.067 192.169 216.2C192.311 216.334 192.382 216.494 192.382 216.682C192.382 216.869 192.311 217.03 192.169 217.163C192.03 217.297 191.862 217.364 191.666 217.364ZM196.849 218.455V219.307H193.457V218.455H196.849ZM194.446 216.886H195.451V223.125C195.451 223.409 195.493 223.622 195.575 223.764C195.66 223.903 195.768 223.997 195.899 224.045C196.032 224.091 196.173 224.114 196.321 224.114C196.431 224.114 196.522 224.108 196.593 224.097C196.664 224.082 196.721 224.071 196.764 224.062L196.968 224.966C196.9 224.991 196.805 225.017 196.683 225.043C196.561 225.071 196.406 225.085 196.218 225.085C195.934 225.085 195.656 225.024 195.383 224.902C195.113 224.78 194.889 224.594 194.71 224.344C194.534 224.094 194.446 223.778 194.446 223.398V216.886ZM199.01 227.455C198.839 227.455 198.687 227.44 198.554 227.412C198.42 227.386 198.328 227.361 198.277 227.335L198.532 226.449C198.777 226.511 198.993 226.534 199.18 226.517C199.368 226.5 199.534 226.416 199.679 226.266C199.826 226.118 199.961 225.878 200.083 225.545L200.271 225.034L197.85 218.455H198.941L200.748 223.67H200.816L202.623 218.455H203.714L200.936 225.955C200.811 226.293 200.656 226.572 200.471 226.794C200.287 227.018 200.072 227.185 199.828 227.293C199.586 227.401 199.314 227.455 199.01 227.455ZM211.246 225H208.553V216.273H211.365C212.212 216.273 212.936 216.447 213.539 216.797C214.141 217.143 214.603 217.642 214.924 218.293C215.245 218.94 215.405 219.716 215.405 220.619C215.405 221.528 215.243 222.311 214.919 222.967C214.596 223.621 214.124 224.124 213.505 224.476C212.885 224.825 212.132 225 211.246 225ZM209.61 224.062H211.178C211.9 224.062 212.498 223.923 212.972 223.645C213.446 223.366 213.8 222.97 214.033 222.456C214.266 221.942 214.382 221.33 214.382 220.619C214.382 219.915 214.267 219.308 214.037 218.8C213.807 218.288 213.463 217.896 213.006 217.624C212.549 217.348 211.979 217.21 211.297 217.21H209.61V224.062ZM218.968 225.153C218.553 225.153 218.176 225.075 217.838 224.919C217.5 224.76 217.232 224.531 217.033 224.233C216.834 223.932 216.735 223.568 216.735 223.142C216.735 222.767 216.809 222.463 216.956 222.23C217.104 221.994 217.301 221.81 217.549 221.676C217.796 221.543 218.069 221.443 218.367 221.378C218.668 221.31 218.971 221.256 219.275 221.216C219.672 221.165 219.995 221.126 220.242 221.101C220.492 221.072 220.674 221.026 220.787 220.96C220.904 220.895 220.962 220.781 220.962 220.619V220.585C220.962 220.165 220.847 219.838 220.617 219.605C220.39 219.372 220.044 219.256 219.581 219.256C219.101 219.256 218.725 219.361 218.452 219.571C218.179 219.781 217.988 220.006 217.877 220.244L216.922 219.903C217.093 219.506 217.32 219.196 217.604 218.974C217.891 218.75 218.203 218.594 218.542 218.506C218.882 218.415 219.218 218.369 219.547 218.369C219.757 218.369 219.999 218.395 220.272 218.446C220.547 218.494 220.813 218.595 221.069 218.749C221.327 218.902 221.542 219.134 221.712 219.443C221.882 219.753 221.968 220.168 221.968 220.688V225H220.962V224.114H220.911C220.843 224.256 220.729 224.408 220.57 224.57C220.411 224.732 220.199 224.869 219.935 224.983C219.671 225.097 219.348 225.153 218.968 225.153ZM219.121 224.25C219.519 224.25 219.854 224.172 220.127 224.016C220.402 223.859 220.61 223.658 220.749 223.411C220.891 223.163 220.962 222.903 220.962 222.631V221.71C220.919 221.761 220.826 221.808 220.681 221.851C220.539 221.891 220.374 221.926 220.186 221.957C220.002 221.986 219.821 222.011 219.645 222.034C219.472 222.054 219.331 222.071 219.223 222.085C218.962 222.119 218.718 222.175 218.49 222.251C218.266 222.325 218.084 222.437 217.945 222.588C217.809 222.736 217.74 222.937 217.74 223.193C217.74 223.543 217.87 223.807 218.128 223.986C218.39 224.162 218.721 224.25 219.121 224.25ZM226.65 218.455V219.307H223.258V218.455H226.65ZM224.246 216.886H225.252V223.125C225.252 223.409 225.293 223.622 225.376 223.764C225.461 223.903 225.569 223.997 225.7 224.045C225.833 224.091 225.974 224.114 226.121 224.114C226.232 224.114 226.323 224.108 226.394 224.097C226.465 224.082 226.522 224.071 226.565 224.062L226.769 224.966C226.701 224.991 226.606 225.017 226.484 225.043C226.362 225.071 226.207 225.085 226.019 225.085C225.735 225.085 225.457 225.024 225.184 224.902C224.914 224.78 224.69 224.594 224.511 224.344C224.335 224.094 224.246 223.778 224.246 223.398V216.886ZM230.837 225.136C230.206 225.136 229.662 224.997 229.205 224.719C228.75 224.438 228.399 224.045 228.152 223.543C227.908 223.037 227.786 222.449 227.786 221.778C227.786 221.108 227.908 220.517 228.152 220.006C228.399 219.491 228.743 219.091 229.183 218.804C229.626 218.514 230.143 218.369 230.734 218.369C231.075 218.369 231.412 218.426 231.744 218.54C232.077 218.653 232.379 218.838 232.652 219.094C232.925 219.347 233.142 219.682 233.304 220.099C233.466 220.517 233.547 221.031 233.547 221.642V222.068H228.501V221.199H232.524C232.524 220.83 232.45 220.5 232.303 220.21C232.158 219.92 231.95 219.692 231.68 219.524C231.413 219.357 231.098 219.273 230.734 219.273C230.334 219.273 229.987 219.372 229.695 219.571C229.405 219.767 229.182 220.023 229.026 220.338C228.869 220.653 228.791 220.991 228.791 221.352V221.932C228.791 222.426 228.876 222.845 229.047 223.189C229.22 223.53 229.46 223.79 229.767 223.969C230.074 224.145 230.43 224.233 230.837 224.233C231.101 224.233 231.339 224.196 231.553 224.122C231.768 224.045 231.955 223.932 232.111 223.781C232.267 223.628 232.388 223.437 232.473 223.21L233.445 223.483C233.342 223.812 233.17 224.102 232.929 224.352C232.688 224.599 232.389 224.793 232.034 224.932C231.679 225.068 231.28 225.136 230.837 225.136Z" fill="#8D8D8D"/>
<path d="M157.888 247V243.001H158.333V242.556H158.775V242.113H159.221V241.668H162.332V241.223H162.777V240.78H163.22V239.89H162.777V239.447H162.332V239.002H160.108V239.447H159.666V239.89H159.221V240.335H157.888V239.002H158.333V238.557H158.775V238.111H159.221V237.669H163.22V238.111H163.665V238.557H164.11V239.002H164.553V241.668H164.11V242.113H163.665V242.556H163.22V243.001H160.108V243.446H159.666V243.892H159.221V245.667H163.22V244.334H164.553V247H157.888ZM167.225 247V246.558H166.779V246.112H166.337V245.667H165.892V244.334H167.225V244.779H167.67V245.225H168.112V245.667H170.336V245.225H170.781V244.779H171.224V243.892H170.781V243.446H170.336V243.001H168.558V241.668H170.336V241.223H170.781V240.78H171.224V239.89H170.781V239.447H170.336V239.002H168.112V239.447H167.67V239.89H167.225V240.335H165.892V239.002H166.337V238.557H166.779V238.111H167.225V237.669H171.224V238.111H171.669V238.557H172.114V239.002H172.557V241.668H172.114V242.113H171.669V242.556H172.114V243.001H172.557V245.667H172.114V246.112H171.669V246.558H171.224V247H167.225ZM177.669 247V237.669H179.002V238.111H179.447V238.557H179.89V239.002H180.335V239.447H180.78V239.89H181.226V239.447H181.668V239.002H182.113V238.557H182.559V238.111H183.001V237.669H184.334V247H183.001V240.335H182.559V240.78H182.113V241.223H181.668V241.668H180.335V241.223H179.89V240.78H179.447V240.335H179.002V247H177.669ZM191.005 245.667V244.334H187.894V244.779H187.451V245.225H187.894V245.667H191.005ZM187.006 247V246.558H186.561V246.112H186.118V245.667H185.673V244.334H186.118V243.892H186.561V243.446H187.006V243.001H191.005V242.556H190.562V242.113H190.117V241.668H187.006V240.335H191.005V240.78H191.45V241.223H191.896V241.668H192.338V247H187.006ZM193.677 247V240.335H195.01V241.668H195.455V241.223H195.897V240.78H196.343V240.335H199.009V240.78H199.454V241.223H199.899V241.668H200.342V243.001H199.009V242.556H198.566V242.113H198.121V241.668H197.233V242.113H196.788V242.556H196.343V243.001H195.897V243.446H195.455V243.892H195.01V247H193.677ZM205.454 247V243.001H205.899V242.556H206.342V242.113H206.787V241.668H209.898V241.223H210.344V240.78H210.786V239.89H210.344V239.447H209.898V239.002H207.675V239.447H207.232V239.89H206.787V240.335H205.454V239.002H205.899V238.557H206.342V238.111H206.787V237.669H210.786V238.111H211.231V238.557H211.677V239.002H212.119V241.668H211.677V242.113H211.231V242.556H210.786V243.001H207.675V243.446H207.232V243.892H206.787V245.667H210.786V244.334H212.119V247H205.454ZM217.902 245.667V245.225H218.348V244.779H218.79V241.668H218.348V242.113H217.902V242.556H217.457V243.001H217.015V243.446H216.569V243.892H216.124V244.334H215.679V244.779H215.236V245.225H215.679V245.667H217.902ZM215.236 243.001V242.556H215.679V242.113H216.124V241.668H216.569V241.223H217.015V240.78H217.457V240.335H217.902V239.89H218.348V239.447H217.902V239.002H215.679V239.447H215.236V239.89H214.791V243.001H215.236ZM214.791 247V246.558H214.346V246.112H213.903V245.667H213.458V239.002H213.903V238.557H214.346V238.111H214.791V237.669H218.79V238.111H219.235V238.557H219.681V239.002H220.123V245.667H219.681V246.112H219.235V246.558H218.79V247H214.791ZM221.462 247V243.001H221.907V242.556H222.35V242.113H222.795V241.668H225.906V241.223H226.352V240.78H226.794V239.89H226.352V239.447H225.906V239.002H223.683V239.447H223.24V239.89H222.795V240.335H221.462V239.002H221.907V238.557H222.35V238.111H222.795V237.669H226.794V238.111H227.239V238.557H227.685V239.002H228.127V241.668H227.685V242.113H227.239V242.556H226.794V243.001H223.683V243.446H223.24V243.892H222.795V245.667H226.794V244.334H228.127V247H221.462ZM230.799 247V246.558H230.354V246.112H229.911V245.667H229.466V244.334H230.799V244.779H231.244V245.225H231.687V245.667H233.91V245.225H234.355V244.779H234.798V243.892H234.355V243.446H233.91V243.001H232.132V241.668H233.91V241.223H234.355V240.78H234.798V239.89H234.355V239.447H233.91V239.002H231.687V239.447H231.244V239.89H230.799V240.335H229.466V239.002H229.911V238.557H230.354V238.111H230.799V237.669H234.798V238.111H235.243V238.557H235.688V239.002H236.131V241.668H235.688V242.113H235.243V242.556H235.688V243.001H236.131V245.667H235.688V246.112H235.243V246.558H234.798V247H230.799Z" fill="#F2F2F2"/>
<path d="M22.7841 269.273H23.8409V275.051C23.8409 275.648 23.7003 276.18 23.419 276.649C23.1406 277.115 22.7472 277.483 22.2386 277.753C21.7301 278.02 21.1335 278.153 20.4489 278.153C19.7642 278.153 19.1676 278.02 18.6591 277.753C18.1506 277.483 17.7557 277.115 17.4744 276.649C17.196 276.18 17.0568 275.648 17.0568 275.051V269.273H18.1136V274.966C18.1136 275.392 18.2074 275.771 18.3949 276.104C18.5824 276.433 18.8494 276.693 19.196 276.884C19.5455 277.071 19.9631 277.165 20.4489 277.165C20.9347 277.165 21.3523 277.071 21.7017 276.884C22.0511 276.693 22.3182 276.433 22.5028 276.104C22.6903 275.771 22.7841 275.392 22.7841 274.966V269.273ZM28.6616 271.455V272.307H25.2695V271.455H28.6616ZM26.2582 269.886H27.2638V276.125C27.2638 276.409 27.305 276.622 27.3874 276.764C27.4727 276.903 27.5806 276.997 27.7113 277.045C27.8448 277.091 27.9854 277.114 28.1332 277.114C28.244 277.114 28.3349 277.108 28.4059 277.097C28.4769 277.082 28.5337 277.071 28.5763 277.062L28.7809 277.966C28.7127 277.991 28.6175 278.017 28.4954 278.043C28.3732 278.071 28.2184 278.085 28.0309 278.085C27.7468 278.085 27.4684 278.024 27.1957 277.902C26.9258 277.78 26.7013 277.594 26.5224 277.344C26.3462 277.094 26.2582 276.778 26.2582 276.398V269.886ZM30.1744 278V271.455H31.18V278H30.1744ZM30.6857 270.364C30.4897 270.364 30.3207 270.297 30.1786 270.163C30.0394 270.03 29.9698 269.869 29.9698 269.682C29.9698 269.494 30.0394 269.334 30.1786 269.2C30.3207 269.067 30.4897 269 30.6857 269C30.8817 269 31.0494 269.067 31.1886 269.2C31.3306 269.334 31.4016 269.494 31.4016 269.682C31.4016 269.869 31.3306 270.03 31.1886 270.163C31.0494 270.297 30.8817 270.364 30.6857 270.364ZM34.0277 269.273V278H33.022V269.273H34.0277ZM35.8697 278V271.455H36.8754V278H35.8697ZM36.381 270.364C36.185 270.364 36.016 270.297 35.8739 270.163C35.7347 270.03 35.6651 269.869 35.6651 269.682C35.6651 269.494 35.7347 269.334 35.8739 269.2C36.016 269.067 36.185 269 36.381 269C36.5771 269 36.7447 269.067 36.8839 269.2C37.0259 269.334 37.0969 269.494 37.0969 269.682C37.0969 269.869 37.0259 270.03 36.8839 270.163C36.7447 270.297 36.5771 270.364 36.381 270.364ZM38.5298 278V277.233L42.2457 272.46V272.392H38.6491V271.455H43.5412V272.256L39.9276 276.994V277.062H43.6605V278H38.5298ZM47.1357 278.153C46.7209 278.153 46.3445 278.075 46.0064 277.919C45.6683 277.76 45.3999 277.531 45.201 277.233C45.0021 276.932 44.9027 276.568 44.9027 276.142C44.9027 275.767 44.9766 275.463 45.1243 275.23C45.272 274.994 45.4695 274.81 45.7166 274.676C45.9638 274.543 46.2365 274.443 46.5348 274.378C46.8359 274.31 47.1385 274.256 47.4425 274.216C47.8402 274.165 48.1626 274.126 48.4098 274.101C48.6598 274.072 48.8416 274.026 48.9553 273.96C49.0717 273.895 49.13 273.781 49.13 273.619V273.585C49.13 273.165 49.0149 272.838 48.7848 272.605C48.5575 272.372 48.2124 272.256 47.7493 272.256C47.2692 272.256 46.8928 272.361 46.62 272.571C46.3473 272.781 46.1555 273.006 46.0447 273.244L45.0902 272.903C45.2607 272.506 45.4879 272.196 45.772 271.974C46.0589 271.75 46.3714 271.594 46.7095 271.506C47.0504 271.415 47.3857 271.369 47.7152 271.369C47.9254 271.369 48.1669 271.395 48.4396 271.446C48.7152 271.494 48.9808 271.595 49.2365 271.749C49.495 271.902 49.7095 272.134 49.88 272.443C50.0504 272.753 50.1357 273.168 50.1357 273.688V278H49.13V277.114H49.0788C49.0107 277.256 48.897 277.408 48.7379 277.57C48.5788 277.732 48.3672 277.869 48.103 277.983C47.8388 278.097 47.5163 278.153 47.1357 278.153ZM47.2891 277.25C47.6868 277.25 48.022 277.172 48.2947 277.016C48.5703 276.859 48.7777 276.658 48.9169 276.411C49.0589 276.163 49.13 275.903 49.13 275.631V274.71C49.0874 274.761 48.9936 274.808 48.8487 274.851C48.7067 274.891 48.5419 274.926 48.3544 274.957C48.1697 274.986 47.9893 275.011 47.8132 275.034C47.6399 275.054 47.4993 275.071 47.3913 275.085C47.13 275.119 46.8857 275.175 46.6584 275.251C46.4339 275.325 46.2521 275.437 46.1129 275.588C45.9766 275.736 45.9084 275.937 45.9084 276.193C45.9084 276.543 46.0376 276.807 46.2962 276.986C46.5575 277.162 46.8885 277.25 47.2891 277.25ZM54.8178 271.455V272.307H51.4258V271.455H54.8178ZM52.4144 269.886H53.4201V276.125C53.4201 276.409 53.4613 276.622 53.5437 276.764C53.6289 276.903 53.7369 276.997 53.8675 277.045C54.0011 277.091 54.1417 277.114 54.2894 277.114C54.4002 277.114 54.4911 277.108 54.5621 277.097C54.6332 277.082 54.69 277.071 54.7326 277.062L54.9371 277.966C54.869 277.991 54.7738 278.017 54.6516 278.043C54.5295 278.071 54.3746 278.085 54.1871 278.085C53.9031 278.085 53.6246 278.024 53.3519 277.902C53.082 277.78 52.8576 277.594 52.6786 277.344C52.5025 277.094 52.4144 276.778 52.4144 276.398V269.886ZM56.3306 278V271.455H57.3363V278H56.3306ZM56.842 270.364C56.646 270.364 56.4769 270.297 56.3349 270.163C56.1957 270.03 56.1261 269.869 56.1261 269.682C56.1261 269.494 56.1957 269.334 56.3349 269.2C56.4769 269.067 56.646 269 56.842 269C57.038 269 57.2056 269.067 57.3448 269.2C57.4869 269.334 57.5579 269.494 57.5579 269.682C57.5579 269.869 57.4869 270.03 57.3448 270.163C57.2056 270.297 57.038 270.364 56.842 270.364ZM61.8374 278.136C61.2464 278.136 60.728 277.996 60.282 277.714C59.8388 277.433 59.4922 277.04 59.2422 276.534C58.995 276.028 58.8714 275.437 58.8714 274.761C58.8714 274.08 58.995 273.484 59.2422 272.976C59.4922 272.467 59.8388 272.072 60.282 271.791C60.728 271.51 61.2464 271.369 61.8374 271.369C62.4283 271.369 62.9453 271.51 63.3885 271.791C63.8345 272.072 64.1811 272.467 64.4283 272.976C64.6783 273.484 64.8033 274.08 64.8033 274.761C64.8033 275.437 64.6783 276.028 64.4283 276.534C64.1811 277.04 63.8345 277.433 63.3885 277.714C62.9453 277.996 62.4283 278.136 61.8374 278.136ZM61.8374 277.233C62.2862 277.233 62.6555 277.118 62.9453 276.888C63.2351 276.658 63.4496 276.355 63.5888 275.98C63.728 275.605 63.7976 275.199 63.7976 274.761C63.7976 274.324 63.728 273.916 63.5888 273.538C63.4496 273.161 63.2351 272.855 62.9453 272.622C62.6555 272.389 62.2862 272.273 61.8374 272.273C61.3885 272.273 61.0192 272.389 60.7294 272.622C60.4396 272.855 60.2251 273.161 60.0859 273.538C59.9467 273.916 59.8771 274.324 59.8771 274.761C59.8771 275.199 59.9467 275.605 60.0859 275.98C60.2251 276.355 60.4396 276.658 60.7294 276.888C61.0192 277.118 61.3885 277.233 61.8374 277.233ZM67.3441 274.062V278H66.3384V271.455H67.31V272.477H67.3952C67.5487 272.145 67.7816 271.878 68.0941 271.676C68.4066 271.472 68.81 271.369 69.3043 271.369C69.7475 271.369 70.1353 271.46 70.4677 271.642C70.8001 271.821 71.0586 272.094 71.2433 272.46C71.4279 272.824 71.5202 273.284 71.5202 273.841V278H70.5146V273.909C70.5146 273.395 70.381 272.994 70.114 272.707C69.8469 272.418 69.4805 272.273 69.0146 272.273C68.6935 272.273 68.4066 272.342 68.1538 272.482C67.9038 272.621 67.7063 272.824 67.5614 273.091C67.4165 273.358 67.3441 273.682 67.3441 274.062ZM76.8693 278V269.273H79.8182C80.5 269.273 81.0597 269.389 81.4972 269.622C81.9347 269.852 82.2585 270.169 82.4688 270.572C82.679 270.976 82.7841 271.435 82.7841 271.949C82.7841 272.463 82.679 272.919 82.4688 273.317C82.2585 273.714 81.9361 274.027 81.5014 274.254C81.0668 274.479 80.5114 274.591 79.8352 274.591H77.4489V273.636H79.8011C80.267 273.636 80.642 273.568 80.9261 273.432C81.2131 273.295 81.4205 273.102 81.5483 272.852C81.679 272.599 81.7443 272.298 81.7443 271.949C81.7443 271.599 81.679 271.294 81.5483 271.033C81.4176 270.771 81.2088 270.57 80.9219 270.428C80.6349 270.283 80.2557 270.21 79.7841 270.21H77.9261V278H76.8693ZM80.9773 274.08L83.125 278H81.8977L79.7841 274.08H80.9773ZM86.3349 278.153C85.9201 278.153 85.5437 278.075 85.2056 277.919C84.8675 277.76 84.5991 277.531 84.4002 277.233C84.2013 276.932 84.1019 276.568 84.1019 276.142C84.1019 275.767 84.1758 275.463 84.3235 275.23C84.4712 274.994 84.6687 274.81 84.9158 274.676C85.163 274.543 85.4357 274.443 85.734 274.378C86.0352 274.31 86.3377 274.256 86.6417 274.216C87.0394 274.165 87.3619 274.126 87.609 274.101C87.859 274.072 88.0408 274.026 88.1545 273.96C88.271 273.895 88.3292 273.781 88.3292 273.619V273.585C88.3292 273.165 88.2141 272.838 87.984 272.605C87.7567 272.372 87.4116 272.256 86.9485 272.256C86.4684 272.256 86.092 272.361 85.8192 272.571C85.5465 272.781 85.3548 273.006 85.244 273.244L84.2894 272.903C84.4599 272.506 84.6871 272.196 84.9712 271.974C85.2582 271.75 85.5707 271.594 85.9087 271.506C86.2496 271.415 86.5849 271.369 86.9144 271.369C87.1246 271.369 87.3661 271.395 87.6388 271.446C87.9144 271.494 88.18 271.595 88.4357 271.749C88.6942 271.902 88.9087 272.134 89.0792 272.443C89.2496 272.753 89.3349 273.168 89.3349 273.688V278H88.3292V277.114H88.2781C88.2099 277.256 88.0962 277.408 87.9371 277.57C87.7781 277.732 87.5664 277.869 87.3022 277.983C87.038 278.097 86.7156 278.153 86.3349 278.153ZM86.4883 277.25C86.886 277.25 87.2212 277.172 87.494 277.016C87.7695 276.859 87.9769 276.658 88.1161 276.411C88.2582 276.163 88.3292 275.903 88.3292 275.631V274.71C88.2866 274.761 88.1928 274.808 88.0479 274.851C87.9059 274.891 87.7411 274.926 87.5536 274.957C87.369 274.986 87.1886 275.011 87.0124 275.034C86.8391 275.054 86.6985 275.071 86.5906 275.085C86.3292 275.119 86.0849 275.175 85.8576 275.251C85.6332 275.325 85.4513 275.437 85.3121 275.588C85.1758 275.736 85.1076 275.937 85.1076 276.193C85.1076 276.543 85.2369 276.807 85.4954 276.986C85.7567 277.162 86.0877 277.25 86.4883 277.25ZM94.017 271.455V272.307H90.625V271.455H94.017ZM91.6136 269.886H92.6193V276.125C92.6193 276.409 92.6605 276.622 92.7429 276.764C92.8281 276.903 92.9361 276.997 93.0668 277.045C93.2003 277.091 93.3409 277.114 93.4886 277.114C93.5994 277.114 93.6903 277.108 93.7614 277.097C93.8324 277.082 93.8892 277.071 93.9318 277.062L94.1364 277.966C94.0682 277.991 93.973 278.017 93.8509 278.043C93.7287 278.071 93.5739 278.085 93.3864 278.085C93.1023 278.085 92.8239 278.024 92.5511 277.902C92.2813 277.78 92.0568 277.594 91.8778 277.344C91.7017 277.094 91.6136 276.778 91.6136 276.398V269.886ZM98.2038 278.136C97.5732 278.136 97.0291 277.997 96.5717 277.719C96.1172 277.438 95.7663 277.045 95.5192 276.543C95.2749 276.037 95.1527 275.449 95.1527 274.778C95.1527 274.108 95.2749 273.517 95.5192 273.006C95.7663 272.491 96.1101 272.091 96.5504 271.804C96.9936 271.514 97.5107 271.369 98.1016 271.369C98.4425 271.369 98.7791 271.426 99.1115 271.54C99.4439 271.653 99.7464 271.838 100.019 272.094C100.292 272.347 100.509 272.682 100.671 273.099C100.833 273.517 100.914 274.031 100.914 274.642V275.068H95.8686V274.199H99.8913C99.8913 273.83 99.8175 273.5 99.6697 273.21C99.5249 272.92 99.3175 272.692 99.0476 272.524C98.7805 272.357 98.4652 272.273 98.1016 272.273C97.701 272.273 97.3544 272.372 97.0618 272.571C96.772 272.767 96.549 273.023 96.3928 273.338C96.2365 273.653 96.1584 273.991 96.1584 274.352V274.932C96.1584 275.426 96.2436 275.845 96.4141 276.189C96.5874 276.53 96.8274 276.79 97.1342 276.969C97.4411 277.145 97.7976 277.233 98.2038 277.233C98.468 277.233 98.7067 277.196 98.9197 277.122C99.1357 277.045 99.3217 276.932 99.478 276.781C99.6342 276.628 99.755 276.437 99.8402 276.21L100.812 276.483C100.71 276.812 100.538 277.102 100.296 277.352C100.055 277.599 99.7564 277.793 99.4013 277.932C99.0462 278.068 98.647 278.136 98.2038 278.136Z" fill="#8D8D8D"/>
<path d="M244.209 279.5V279.058H243.764V278.612H243.321V278.167H242.876V276.834H244.209V277.279H244.654V277.725H245.097V278.167H247.32V277.725H247.766V277.279H248.208V276.392H247.766V275.946H247.32V275.501H245.542V274.168H247.32V273.723H247.766V273.28H248.208V272.39H247.766V271.947H247.32V271.502H245.097V271.947H244.654V272.39H244.209V272.835H242.876V271.502H243.321V271.057H243.764V270.611H244.209V270.169H248.208V270.611H248.653V271.057H249.099V271.502H249.541V274.168H249.099V274.613H248.653V275.056H249.099V275.501H249.541V278.167H249.099V278.612H248.653V279.058H248.208V279.5H244.209ZM250.88 279.5V275.501H251.325V275.056H251.768V274.613H252.213V274.168H255.324V273.723H255.77V273.28H256.212V272.39H255.77V271.947H255.324V271.502H253.101V271.947H252.658V272.39H252.213V272.835H250.88V271.502H251.325V271.057H251.768V270.611H252.213V270.169H256.212V270.611H256.657V271.057H257.103V271.502H257.545V274.168H257.103V274.613H256.657V275.056H256.212V275.501H253.101V275.946H252.658V276.392H252.213V278.167H256.212V276.834H257.545V279.5H250.88ZM264.661 278.612V277.725H263.773V278.612H264.661ZM263.328 279.5V279.058H262.883V277.279H263.328V276.834H265.106V277.279H265.549V279.058H265.106V279.5H263.328ZM260.662 271.947V271.057H259.771V271.947H260.662ZM259.329 272.835V272.39H258.884V270.611H259.329V270.169H261.104V270.611H261.55V272.39H261.104V272.835H259.329ZM258.884 279.5V276.834H259.329V276.392H259.771V275.946H260.217V275.501H260.662V275.056H261.104V274.613H261.55V274.168H261.995V273.723H262.44V273.28H262.883V272.835H263.328V272.39H263.773V271.947H264.216V270.169H265.549V272.835H265.106V273.28H264.661V273.723H264.216V274.168H263.773V274.613H263.328V275.056H262.883V275.501H262.44V275.946H261.995V276.392H261.55V276.834H261.104V277.279H260.662V277.725H260.217V279.5H258.884Z" fill="#F2F2F2"/>
<rect x="16" y="287" width="250" height="6" rx="3" fill="#2B2D2F"/>
<g filter="url(#filter1_d_387_64000)">
<rect x="16" y="287" width="83.6653" height="6" rx="3" fill="#98FFFF"/>
</g>
<path d="M16.5795 302.21V301.273H23.125V302.21H20.3807V310H19.3239V302.21H16.5795ZM25.114 301.273L27.7049 308.619H27.8072L30.3981 301.273H31.506L28.3015 310H27.2106L24.006 301.273H25.114ZM32.8654 310V301.273H33.9222V309.062H37.979V310H32.8654Z" fill="#8D8D8D"/>
<path d="M240.204 311.5V310.167H242.87V303.502H242.425V303.947H241.982V304.39H241.537V304.835H240.204V303.502H240.649V303.057H241.092V302.611H241.537V302.169H244.203V310.167H246.869V311.5H240.204ZM248.208 311.5V310.167H249.541V311.5H248.208ZM254.879 311.5V308.834H250.88V306.168H251.325V305.723H251.768V305.28H252.213V304.835H252.658V304.39H253.101V303.947H253.546V303.502H253.991V303.057H254.437V302.611H254.879V302.169H256.212V303.502H255.77V303.947H255.324V304.39H254.879V304.835H254.437V305.28H253.991V305.723H253.546V306.168H253.101V306.613H252.658V307.501H254.879V306.168H256.212V307.501H257.545V308.834H256.212V311.5H254.879ZM258.884 311.5V302.169H260.217V302.611H260.662V303.057H261.104V303.502H261.55V303.947H261.995V304.39H262.44V303.947H262.883V303.502H263.328V303.057H263.773V302.611H264.216V302.169H265.549V311.5H264.216V304.835H263.773V305.28H263.328V305.723H262.883V306.168H261.55V305.723H261.104V305.28H260.662V304.835H260.217V311.5H258.884Z" fill="#F2F2F2"/>
</g>
<rect x="0.5" y="0.5" width="281" height="330" rx="11.5" stroke="#161718"/>
<defs>
<filter id="filter0_d_387_64000" x="21.5" y="65.499" width="63" height="63" filterUnits="userSpaceOnUse" colorInterpolationFilters="sRGB">
<feFlood floodOpacity="0" result="BackgroundImageFix"/>
<feColorMatrix in="SourceAlpha" type="matrix" values="0 0 0 0 0 0 0 0 0 0 0 0 0 0 0 0 0 0 127 0" result="hardAlpha"/>
<feOffset/>
<feGaussianBlur stdDeviation="1.5"/>
<feComposite in2="hardAlpha" operator="out"/>
<feColorMatrix type="matrix" values="0 0 0 0 0.384314 0 0 0 0 0.494118 0 0 0 0 0.917647 0 0 0 1 0"/>
<feBlend mode="normal" in2="BackgroundImageFix" result="effect1_dropShadow_387_64000"/>
<feBlend mode="normal" in="SourceGraphic" in2="effect1_dropShadow_387_64000" result="shape"/>
</filter>
<filter id="filter1_d_387_64000" x="9" y="280" width="99.6641" height="22" filterUnits="userSpaceOnUse" colorInterpolationFilters="sRGB">
<feFlood floodOpacity="0" result="BackgroundImageFix"/>
<feColorMatrix in="SourceAlpha" type="matrix" values="0 0 0 0 0 0 0 0 0 0 0 0 0 0 0 0 0 0 127 0" result="hardAlpha"/>
<feOffset dx="1" dy="1"/>
<feGaussianBlur stdDeviation="4"/>
<feComposite in2="hardAlpha" operator="out"/>
<feColorMatrix type="matrix" values="0 0 0 0 0.595833 0 0 0 0 1 0 0 0 0 0.998227 0 0 0 0.2 0"/>
<feBlend mode="normal" in2="BackgroundImageFix" result="effect1_dropShadow_387_64000"/>
<feBlend mode="normal" in="SourceGraphic" in2="effect1_dropShadow_387_64000" result="shape"/>
</filter>
<clipPath id="clip0_387_64000">
<rect width="282" height="331" rx="12" fill="white"/>
</clipPath>
</defs>
</svg>
