
      <svg
        width="45"
        height="45"
        viewBox="0 0 45 45"
        fill="none"
        xmlns="http://www.w3.org/2000/svg"
      >
        <rect width="44.3762" height="44.3762" rx="22.1881" fill="#253A3A" />
        <path
          d="M24.0931 28.2189C24.3583 28.2231 24.6143 28.1217 24.8048 27.9372C24.9952 27.7526 25.1046 27.5 25.1088 27.2348L25.2919 15.6463L27.5453 17.9821C27.7306 18.1734 27.9843 18.2832 28.2506 18.2874C28.5168 18.2916 28.7739 18.1899 28.9651 18.0046C29.1564 17.8193 29.2662 17.5656 29.2704 17.2993C29.2746 17.0331 29.1729 16.776 28.9876 16.5848L25.0513 12.5221C24.9128 12.3811 24.7358 12.2843 24.5424 12.2439C24.349 12.2034 24.148 12.2212 23.9647 12.2949C23.7809 12.367 23.6226 12.4919 23.5097 12.6539C23.3968 12.8158 23.3344 13.0076 23.3303 13.205L23.109 27.2032C23.1049 27.4684 23.2062 27.7244 23.3907 27.9149C23.5753 28.1053 23.8279 28.2147 24.0931 28.2189ZM20.4116 32.0812C20.5954 32.0091 20.7537 31.8842 20.8666 31.7222C20.9796 31.5602 21.042 31.3685 21.0461 31.1711L21.2673 17.1729C21.2715 16.9077 21.1702 16.6517 20.9856 16.4612C20.8011 16.2707 20.5484 16.1614 20.2832 16.1572C20.018 16.153 19.7621 16.2543 19.5716 16.4389C19.3811 16.6234 19.2717 16.8761 19.2676 17.1413L19.0844 28.7298L16.8311 26.3939C16.7396 26.2987 16.6302 26.2226 16.5091 26.1699C16.3881 26.1172 16.2578 26.089 16.1258 26.0869C15.9938 26.0848 15.8627 26.1089 15.7401 26.1578C15.6174 26.2066 15.5057 26.2792 15.4112 26.3715C15.316 26.4629 15.2399 26.5724 15.1872 26.6934C15.1345 26.8144 15.1063 26.9447 15.1043 27.0767C15.1022 27.2087 15.1262 27.3398 15.1751 27.4625C15.2239 27.5851 15.2965 27.6969 15.3888 27.7913L19.3251 31.854C19.4635 31.995 19.6406 32.0918 19.8339 32.1322C20.0273 32.1726 20.2283 32.1549 20.4116 32.0812Z"
          fill="#98FFFF"
        />
      </svg>