<svg width="34" height="34" viewBox="0 0 34 34" fill="none" xmlns="http://www.w3.org/2000/svg">
<rect width="34" height="34" rx="17" fill="black"/>
<path fill-rule="evenodd" clip-rule="evenodd" d="M15.3313 1.39995C13.6394 1.58412 11.5926 2.2028 9.96402 3.02232C8.80916 3.60349 7.14826 4.7281 6.60052 5.29986L6.27344 5.64122L7.73623 7.10719L9.19891 8.57315L9.65848 8.20165C13.8987 4.77264 19.7141 4.63403 23.9573 7.86086L24.8768 8.56001L26.3373 7.0903L27.7979 5.62071L27.2315 5.10266C25.5492 3.56394 22.8931 2.24417 20.3179 1.66753C19.3103 1.442 16.3866 1.28503 15.3313 1.39995ZM15.0487 8.76582C14.1502 8.96212 12.4337 9.79172 11.8179 10.3273L11.3646 10.7216L12.8204 12.186L14.2761 13.6504L15.0747 13.2412C15.8438 12.8473 15.84 12.7514 16.998 12.7514C17.7685 12.7514 18.2971 12.8429 19.0271 13.2463L19.7762 13.6605L21.2371 12.1911L22.6979 10.7216L22.2446 10.3273C21.6521 9.812 19.9515 8.9951 18.9913 8.76469C18.0551 8.53995 16.0797 8.54052 15.0487 8.76582ZM10.2291 11.9515C8.32262 14.4484 8.0148 18.0024 9.45618 20.8783C9.68851 21.3421 10.0694 21.9399 10.3027 22.2068L10.7266 22.6922L12.2079 21.2178L13.6892 19.7433L13.4183 19.3447C12.5598 18.0813 12.5596 15.9702 13.4179 14.7071L13.6883 14.3091L12.2447 12.8624C11.4508 12.0665 10.7645 11.4156 10.7197 11.4156C10.675 11.4156 10.4542 11.6567 10.2291 11.9515ZM16.0036 15.8639C15.2754 16.5328 15.2763 17.555 16.0056 18.1954C16.6995 18.8047 17.5234 18.7716 18.1584 18.1088C18.775 17.4652 18.7314 16.4816 18.059 15.8639C17.7075 15.5411 17.5805 15.4956 17.0313 15.4956C16.4821 15.4956 16.355 15.5411 16.0036 15.8639ZM19.5246 20.556C19.15 20.8458 18.3825 21.1435 17.6826 21.2705C16.8317 21.4248 15.9143 21.2624 14.9596 20.7886L14.2481 20.4354L12.8346 21.8454C12.0573 22.6209 11.4213 23.3098 11.4213 23.3762C11.4213 23.5101 12.9518 24.535 13.5781 24.8203C15.2289 25.5725 17.5968 25.729 19.3663 25.2028C20.6729 24.8143 22.6234 23.7216 22.6368 23.3706C22.6392 23.3074 21.991 22.6087 21.1963 21.8181C19.8226 20.4515 19.74 20.3893 19.5246 20.556ZM24.2078 26.0195C20.2499 29.2975 14.2462 29.371 10.074 26.1922C9.63366 25.8567 9.23314 25.5822 9.18395 25.5822C9.13476 25.5822 8.45975 26.2185 7.68398 26.9962L6.27355 28.41L6.60902 28.7644C7.59003 29.8005 10.2786 31.3657 12.1058 31.9644C13.8651 32.5407 14.7284 32.6632 17.0313 32.6632C19.3342 32.6632 20.1979 32.5405 21.9567 31.9642C23.7935 31.3622 25.9397 30.1339 27.3819 28.8591L27.8418 28.4527L26.3613 26.9608C25.5471 26.1403 24.8743 25.4729 24.8661 25.4777C24.858 25.4826 24.5617 25.7264 24.2078 26.0195Z" fill="#F4F4F4"/>
<path d="M1.49676 14.5895C1.9297 11.8559 3.25366 8.96781 5.00228 6.94243C5.30046 6.59699 5.57892 6.31445 5.62119 6.31445C5.72319 6.31445 8.47798 9.06505 8.47798 9.16694C8.47798 9.21057 8.19714 9.61925 7.85397 10.0753C6.86956 11.3835 6.26878 12.6346 5.79618 14.3611C5.47862 15.5212 5.50922 18.6266 5.85092 19.9145C6.18015 21.1555 7.1768 23.1752 7.90633 24.08C8.22072 24.4699 8.47798 24.8277 8.47798 24.8751C8.47798 24.9224 7.84128 25.5963 7.06313 26.3726L5.64828 27.7841L5.18667 27.3343C3.77114 25.9552 2.20555 22.8276 1.61134 20.192C1.33209 18.953 1.27191 16.0096 1.49676 14.5895Z" fill="#F4F4F4"/>
<path d="M23.1758 11.2772L24.2432 10.2153C24.8301 9.63117 25.3698 9.15199 25.4423 9.15041C25.7203 9.1444 26.9207 10.8378 27.5299 12.0956C29.4801 16.1213 28.8078 21.2393 25.9001 24.5042L25.4964 24.9576L24.4117 23.8832C23.8152 23.2923 23.3271 22.7653 23.3271 22.7122C23.3271 22.6592 23.4975 22.4032 23.7058 22.1433C24.7826 20.8003 25.4769 18.7903 25.4795 17.0084C25.482 15.3751 24.6084 12.9394 23.6012 11.7708L23.1758 11.2772Z" fill="#F4F4F4"/>
</svg>
